<?xml version="1.0" encoding="utf-8"?>
<!-- Generator: Adobe Illustrator 22.0.1, SVG Export Plug-In . SVG Version: 6.00 Build 0)  -->
<svg version="1.1" id="Capa_1" xmlns="http://www.w3.org/2000/svg" xmlns:xlink="http://www.w3.org/1999/xlink" x="0px" y="0px"
	 viewBox="0 0 1000 1000" style="enable-background:new 0 0 1000 1000;" xml:space="preserve">
<g transform="translate(0.000000,1234.000000) scale(0.100000,-0.100000)">
	<path d="M4899.8,11326.5c-11-0.8-48.7-3.3-83.1-5.7c-369.7-25.9-712.9-120.3-947.2-260.2c-129.3-77.4-274.8-216-370.9-353.8
		c-119.1-171.1-193.7-364.4-223-577.6c-6.5-50.2-6.9-220.1,0-275.6c25.2-205.9,70.9-368.4,148.3-528.9
		c51.4-106.2,103.7-187.7,165.8-258.2l31.2-35.7l-14.6-75.8c-13.7-72.2-14.6-80.7-14.6-159.3c-0.4-118.3,16.3-213.2,53.1-302.4
		c8.5-21.1,14.6-38.1,13.4-38.1c-5.3,0-202.6,98.5-285.7,142.6c-115.1,61.2-117.1,63.2-169.8,167.4c-54.3,107.8-79,142.3-137,189.3
		c-38.5,31.2-100.5,63.6-141.9,74.2c-18.2,4.8-37.7,6.5-63.2,5.3c-32.9-1.2-40.5-3.3-66.9-16.3c-52.3-25.9-96.5-77-120.3-139
		c-21.1-56.4-31.2-117.1-38.5-234.7c-1.6-21.4-3.3-25.5-15.4-36c-93.2-81.4-131.3-121.2-164.6-172.3c-40.5-61.6-55.5-115.2-46.6-167
		c15.8-93.2,91.6-153.6,229-183.2c61.2-13,155.3-13,229.8,0.8c40.1,7.3,69.3,9.8,109.4,10.1h54.7l154.1-72.5
		c218-102.5,426.4-202.6,627.4-300.3l173.5-84.3l-1.2-24.3l-1.2-23.9l-52.7-28.4c-297.1-158.5-566.2-282.1-642.8-295
		c-36.5-6.1-63.2-3.6-123.2,12.2c-96.9,25.2-162.5,25.2-258.6,0.4c-65.7-17-81.1-25.2-111.9-56.4c-64.1-65.3-84.3-150-55.5-232.6
		c17-48.2,40.1-77,134.2-166.2l86.4-82.3l4.5-28.4c2.4-15.4,8.9-70.5,14.2-121.6c8.5-83.5,11-96.5,22.3-123.6
		c25.2-60.4,72.5-109.4,125.3-130.1c31.2-12.2,97.7-13.4,130.5-2c64.1,21.9,98.9,47.5,159.3,118.3c38.5,44.6,59.2,74.2,92.8,130.1
		c23.5,39.7,52.3,85.2,63.2,100.9l20.7,28.8l295.5,156.5l295.9,156.8l64.1-64.1c108.7-107.4,178.3-149.1,323.1-193
		c113.1-34.5,201.9-49,338-55.2c147.1-6.9,299.5,2.4,400.4,24.7c86.7,19.5,187.2,53.9,255.4,87.9c71.8,35.7,155.3,99.7,219.2,168.2
		l32,34.5l293.8-153.2c276-143.9,295-154.4,313.7-174.7c28-31.2,47.8-62.8,77.4-124.4c32-66,53.1-96.5,94.1-134.6
		c97.7-90.4,175.9-126.8,246.5-114.7c43,7.3,76.2,25.5,109.9,59.6c57.1,58.4,83.5,140.7,95.3,299.5l4.8,64.4l49,41
		c64.1,53.1,125.6,115.5,149.6,150.8c65.3,96.5,47.8,207.5-42.5,275.6c-33.2,24.7-61.2,38.5-109.9,54.3
		c-94.8,30.4-172.6,32.4-272.4,6.9c-67.7-17.5-97.3-18.7-135.8-5.3c-14.6,5.3-171.9,76.6-349.8,158.9l-323.4,150l1.2,30.4l1.2,30
		l466.1,219.7c256.6,120.8,475.5,223,486.4,226.6c38.9,13.4,75,12.5,133.7-2.4c50.2-13,55.9-13.7,123.6-13.4
		c111.4,0,176.3,12.2,236.7,43c43,22.3,85.5,64.1,103.4,102.1c22.7,47.5,30.8,107,19,145.5c-11,36.5-90,134.6-173.8,216.5
		l-46.6,45.4l-2.9,39.7c-6.5,94.4-34.8,213.6-65.3,273.2c-21.1,42.5-72.5,84.7-118.3,98.5c-93.6,27.1-186.5-9.3-292.2-115.2
		c-40.5-40.5-59.2-70.1-95.6-152.4c-14.2-32-32-67.7-40.1-79.4c-31.6-47.5-39.3-52.7-226.1-144.3c-95.6-47-173.5-84.7-173.5-83.9
		c0,0.4,4.5,11,9.8,22.7c41,92.8,62.4,221.7,57.9,344.1c-2,49.9-6.1,80.2-18.7,145.5l-16.3,82.6l27.6,29.6
		c129.7,136.2,230.2,320.2,280.4,512.3c53.1,202.3,52.6,453.5-0.4,668.8c-62.8,254.5-200.2,484.4-394.8,660.3
		c-119.6,107.8-199,159.3-329.5,212.8c-191.7,78.7-484.7,150.8-710.5,174.7C5203,11324.5,4948.1,11330.2,4899.8,11326.5z
		 M5250.5,11124.3c247.2-28.4,537.9-106.2,711.7-190.5c189.7-92,388.3-310.1,482-528.9c45-104.2,73.4-212.4,87.6-330.3
		c8.5-68.1,7.3-243.2-1.6-304c-23.5-158.5-82.6-312.5-166.6-433.3l-16.6-23.9l-2.9,17.8c-4.8,31.2-3.3,133.3,2.9,183.2
		c4.5,40.1,10.5,62,34.1,131.7c47.5,138.2,52.3,160.9,61.6,277.7c8.9,117.6-0.4,193.3-30.8,254.2c-13.4,26.4-51.4,77-57.9,77
		c-2,0-33.2-31.2-69.3-69.3l-66.5-68.9l8.5-8.9c23.5-24.7,29.6-77.8,21.4-180c-6.9-81.1-12.5-106.2-45.4-201.4
		c-36-103-43-132.1-50.2-207.1c-7.7-77-7.7-145.5,0-223c9.8-101.3,13.7-125.6,49.9-306l23.1-115.5v-79
		c-0.4-105.4-13-171.1-46.6-241.2c-35.3-73.4-73.4-97.3-253.3-159.7c-109-38.1-167-68.5-261.9-137
		c-100.5-72.5-161.3-185.3-168.6-312.1l-2.4-41.8l-14.6-4.1c-30.8-8.9-113.9-23.9-164.6-30c-95.6-11.3-216-15.4-389.1-13.4
		c-192.1,2.4-259.4,8.5-363.2,31.6l-39.3,8.9l-2.4,18.2c-1.2,10.1-2.4,26.7-2.4,36.9c-0.4,40.5-23.1,118.8-47.8,162.5
		c-34.5,61.2-73,105.4-126.5,145.5c-93.2,70.1-128.1,87.6-252.9,126.8c-185.3,57.9-233.5,92.4-270,193
		c-25.5,70.1-39.3,169.8-34.8,246c1.6,22.3,12.5,90.8,24.7,152c41.8,212.8,50.2,273.6,53.5,389.5c4.5,156.5-4.5,212-55.9,356.7
		c-28.4,80.7-35.7,112.6-42.5,194.9c-8.9,104.9-4.1,153.6,18.2,178.3l11.8,13l-67.7,70.1l-67.3,70.5l-21.1-22.7
		c-57.9-62.8-79.4-151.5-70.1-289.4c9.3-135.8,15.8-167.8,60.8-292.2c31.6-87.9,36.9-114.3,39.3-204.7c1.2-44.6,1.2-97.3-0.8-117.1
		l-2.9-36l-13.7,21.9c-25.2,39.7-81.9,158.9-100.9,212.4c-81.4,226.2-106.6,459.2-70.1,650.5c19,101.3,44.6,176.7,94.4,277.7
		c104.6,213.2,265.1,379.3,464.1,479.9c213.6,108.2,494.1,175.9,826.8,199C4941.2,11135.6,5185.2,11131.5,5250.5,11124.3z
		 M7126.3,8851.7c6.5-8.1,24.3-68.1,33.6-113.5c5.3-27.1,8.9-63.6,10.1-104.6c1.6-42.2,4.1-68.5,8.5-80.7
		c4.8-14.2,23.9-35.3,92.4-103.4c94.9-94.4,127.8-132.9,120.9-143.9c-11.8-18.7-50.2-29.6-126.8-35.7c-51.1-3.6-61.6-2.9-123.6,11.8
		c-88.4,21.1-150.8,20.2-226.6-3.6c-23.1-7.3-662.7-305.2-894.9-417c-8.5-3.6-16.3-6.5-17-5.3c-2.4,2.4,11,68.1,23.9,115.1
		c12.2,44.6,43.7,134.9,49.4,139.9c1.6,2,168.2,84.3,370.1,183.2l366.8,179.6l31.6,30.4c43,40.5,76.2,86.4,100.9,137.8
		c70.1,145.9,60.4,130.1,101.3,166.2c32,27.6,63.2,48.7,72.5,48.7C7121,8856.5,7123.8,8854.1,7126.3,8851.7z M2908.2,8827.3
		c15.8-8.1,36-23.1,52.6-39.7c23.9-23.9,31.2-35.7,64.4-101.8c20.2-41,45.4-87.1,55.9-102.5c23.1-34.8,69.7-82.3,98.5-100.9
		c53.1-33.6,264.3-141.1,473.8-241.2c232.6-111.1,273.2-130.9,276.5-135.8c13.7-21.9,72.2-228.2,72.2-255.4
		c0-1.2-71.8,32.4-158.9,75c-191.7,92.8-449.5,215.6-623.4,297.1c-113.9,53.5-131.3,60.4-164.2,65.7c-49.4,8.1-135.4,4.8-214.8-8.9
		c-64.4-11-106.2-12.5-146.7-6.1c-31.2,5.3-73.7,18.2-84.3,25.9c-6.9,4.8-7.3,6.9-2.9,15.4c16.3,29.6,53.1,70.5,112.3,122.8
		c66.9,59.6,89.1,83.5,98.9,105.4c2.9,6.9,7.7,47.5,11,95.3c6.5,96,7.7,104.9,18.2,145.9c8.9,32.4,21.4,56.7,29.6,56.7
		C2879.8,8840.3,2894,8834.7,2908.2,8827.3z M5830,7987.1c-11-38.9-23.5-114.3-26.7-158c-2-26.4-0.8-45.4,4.1-68.9
		c21.4-109.9,16.6-243.6-14.2-366.8c-37.3-150.3-175.1-320.2-317.8-392.3c-35.3-17.5-122.8-48.7-175.1-62
		c-68.9-17.5-111.9-23.5-209.6-28.8c-97.3-5.3-232.6-0.4-308.4,11c-83.5,12.5-200.2,46.6-259.4,75.4
		c-112.3,54.7-244,204.3-294.7,334.4c-30.4,78.7-45.4,171.9-45.4,283.3c0,66.5,1.6,90,9.3,131.7c9.8,54.7,9.3,85.9-2,153.6
		c-3.3,18.7-5.3,34.8-4.5,35.7c2.4,2,24.7-80.2,39.3-142.6c11-48.7,21.4-111.4,35.7-212.8c5.3-36.5,8.5-50.2,12.5-49.4
		c3.3,0.8,4.1-1.6,2.4-6.9c-4.8-15.4,94.8-105.8,163.3-147.6c108.7-66,252.1-106.2,430.4-120c222.1-17.8,377.8-2.9,538.7,51.1
		c142.3,47.5,261,126,307.2,203.1c10.1,17,10.1,17.5,2.9,23.1c-7.3,5.7-7.3,6.1,2,4.8c9.8-0.8,10.1,0.4,15.4,39.7
		c21.1,163,40.1,252.5,80.7,382.2C5835.3,8020.4,5843.4,8037,5830,7987.1z M4022.7,7337c12.5-47,29.2-92,45.8-125.3l9.8-19
		l-302-160.1c-225.4-119.1-305.6-163.7-316.6-175.1c-24.7-25.9-58.8-73.7-94.1-132.5c-53.9-89.6-70.5-113.5-103-150.3
		c-28.4-31.6-54.7-52.6-65.7-52.6c-10.1,0-18.2,21.9-22.3,57.9c-13,123.6-16.6,155.3-24.3,195.4c-4.5,24.7-11.8,51.9-16.6,61.2
		c-5.3,11-41.3,48.2-103.7,107.4c-52.3,49.9-98.5,96-102.5,103c-16.3,25.9-6.1,38.5,39.3,49c50.2,11.8,98.9,9.8,157.3-5.7
		c87.1-23.1,141.4-25.9,216.8-10.5c47,9.3,160.9,55.2,312.5,125.3c65.3,30,313.7,155.6,340.9,171.9c7.3,4.5,14.2,7.7,14.6,6.9
		C4009.8,7382.8,4015.9,7361.8,4022.7,7337z M6295.4,7243c164.2-76.2,307.2-141.4,317.8-145.9c41.3-16.3,76.2-21.9,133-21.4
		c49.4,0,60.8,1.6,117.6,15.4c56.7,14.2,66.5,15.4,101.3,13.4c26.7-1.2,48.7-5.3,70.9-13c32.9-11,58.8-24.3,58.8-30.4
		c0-7.3-60.8-67.7-111.1-110.7c-67.7-57.6-98.1-86.4-107.4-101.8c-10.1-16.6-15-45.4-23.1-138.2c-8.9-108.7-22.7-171.4-38.9-182
		c-8.5-5.3-37.3,13.7-81.1,54.3c-30,27.6-32.9,32-64.1,95.3c-38.5,78.2-67.3,120-117.6,170.6c-31.2,31.2-44.2,41-82.3,61.2
		c-31.6,17-535.4,278.5-544.7,282.5c-0.4,0.4,6.5,15,14.6,32.9c18.2,37.7,38.5,97.7,45.4,132.1c2.4,13,6.5,23.9,8.5,23.9
		C5995,7381.2,6131.2,7319.1,6295.4,7243z"/>
	<path d="M4555.4,9466.1c-2-0.8-71.3-9.8-153.2-19.9c-167.4-20.7-262.6-35.7-292.6-45c-96.9-31.2-165.8-110.7-180.8-208.3
		c-6.9-45.4-0.8-75.4,30.4-152.8c85.2-208.8,81.9-202.6,141.9-263.1c54.3-53.9,106.6-82.3,180.8-97.3c63.2-12.5,122-0.8,176.3,35.3
		c33.6,22.7,49,38.5,113.5,119.1c98.5,122.8,185.6,267.5,199,329.9c17,80.2-1.6,173.8-45.8,230.6c-28.8,36.9-57.9,57.6-96.5,67.7
		C4606.4,9468.2,4565.5,9470.2,4555.4,9466.1z"/>
	<path d="M5377.3,9462.5c-34.1-9.3-54.3-21.4-81.1-49c-28.4-29.2-49.9-68.9-60.4-113.1c-8.5-35.7-9.3-101.3-2-135.8
		c18.2-83.1,168.6-311.3,273.6-415.8c71.3-70.5,148.8-89.6,248.5-60.4c59.2,17,102.5,42.5,147.1,86.7
		c43.7,43.4,64.4,74.2,85.5,125.6c10.5,25.9,30.8,75.8,45.8,111.1c36.5,88.4,43,110.7,43,150.3c0,82.3-40.5,157.3-109.9,203.5
		c-47,31.2-75.4,40.1-182.4,55.9c-112.3,17-323.1,43.4-360.3,45.4C5409.4,9467.7,5389.5,9466.1,5377.3,9462.5z"/>
	<path d="M5287.4,8485.8c-15,77.4-81.9,198.6-144.7,263.8c-23.1,23.5-94.1,82.6-99.3,82.6c-0.8,0-1.7-0.6-2.7-1.4
		c-1.7,3.2-4.4,5.5-5.9,5.1c-1.6,0-20.3-14.2-41.4-31.6c-85.9-70.5-144.3-151.5-184.4-254.9c-23.5-60.8-31.6-117.6-32-217.7
		c-0.4-77.4,0.4-87.9,8.9-117.6c41-141.4,108.7-136.2,241.2,19c4.9,5.8,8.5,10.2,11.1,13.8c19.3-30.6,101.7-110.6,133.4-126.3
		c27.1-13,51.1-14.2,66-2.9c29.2,21.4,52.7,72.5,61.6,134.6C5307.3,8307.8,5302,8411.6,5287.4,8485.8z"/>
</g>
<path d="M980,957.8c-83.8,0-157-12.8-223.8-39.2c-57.7-22.8-100.9-51.6-139-77c-46.8-31.3-83.8-56-128.4-56
	c-54.6,0-87.7,25.9-129.7,58.7C294.5,894.9,214,957.8,20,957.8v-30c82,0,149.4-11.6,206.3-35.5c49.1-20.6,83.8-47.7,114.4-71.6
	c44.7-34.9,83.3-65.1,148.2-65.1c53.7,0,96,28.3,145,61.1C708,866.2,800.3,927.8,980,927.8V957.8z"/>
<g transform="translate(0.000000,1234.000000) scale(0.100000,-0.100000)">
	<path d="M4899.8,11326.5c-11-0.8-48.7-3.3-83.1-5.7c-369.7-25.9-712.9-120.3-947.2-260.2c-129.3-77.4-274.8-216-370.9-353.8
		c-119.1-171.1-193.7-364.4-223-577.6c-6.5-50.2-6.9-220.1,0-275.6c25.2-205.9,70.9-368.4,148.3-528.9
		c51.4-106.2,103.7-187.7,165.8-258.2l31.2-35.7l-14.6-75.8c-13.7-72.2-14.6-80.7-14.6-159.3c-0.4-118.3,16.3-213.2,53.1-302.4
		c8.5-21.1,14.6-38.1,13.4-38.1c-5.3,0-202.6,98.5-285.7,142.6c-115.1,61.2-117.1,63.2-169.8,167.4c-54.3,107.8-79,142.3-137,189.3
		c-38.5,31.2-100.5,63.6-141.9,74.2c-18.2,4.8-37.7,6.5-63.2,5.3c-32.9-1.2-40.5-3.3-66.9-16.3c-52.3-25.9-96.5-77-120.3-139
		c-21.1-56.4-31.2-117.1-38.5-234.7c-1.6-21.4-3.3-25.5-15.4-36c-93.2-81.4-131.3-121.2-164.6-172.3c-40.5-61.6-55.5-115.2-46.6-167
		c15.8-93.2,91.6-153.6,229-183.2c61.2-13,155.3-13,229.8,0.8c40.1,7.3,69.3,9.8,109.4,10.1h54.7l154.1-72.5
		c218-102.5,426.4-202.6,627.4-300.3l173.5-84.3l-1.2-24.3l-1.2-23.9l-52.7-28.4c-297.1-158.5-566.2-282.1-642.8-295
		c-36.5-6.1-63.2-3.6-123.2,12.2c-96.9,25.2-162.5,25.2-258.6,0.4c-65.7-17-81.1-25.2-111.9-56.4c-64.1-65.3-84.3-150-55.5-232.6
		c17-48.2,40.1-77,134.2-166.2l86.4-82.3l4.5-28.4c2.4-15.4,8.9-70.5,14.2-121.6c8.5-83.5,11-96.5,22.3-123.6
		c25.2-60.4,72.5-109.4,125.3-130.1c31.2-12.2,97.7-13.4,130.5-2c64.1,21.9,98.9,47.5,159.3,118.3c38.5,44.6,59.2,74.2,92.8,130.1
		c23.5,39.7,52.3,85.2,63.2,100.9l20.7,28.8l295.5,156.5l295.9,156.8l64.1-64.1c108.7-107.4,178.3-149.1,323.1-193
		c113.1-34.5,201.9-49,338-55.2c147.1-6.9,299.5,2.4,400.4,24.7c86.7,19.5,187.2,53.9,255.4,87.9c71.8,35.7,155.3,99.7,219.2,168.2
		l32,34.5l293.8-153.2c276-143.9,295-154.4,313.7-174.7c28-31.2,47.8-62.8,77.4-124.4c32-66,53.1-96.5,94.1-134.6
		c97.7-90.4,175.9-126.8,246.5-114.7c43,7.3,76.2,25.5,109.9,59.6c57.1,58.4,83.5,140.7,95.3,299.5l4.8,64.4l49,41
		c64.1,53.1,125.6,115.5,149.6,150.8c65.3,96.5,47.8,207.5-42.5,275.6c-33.2,24.7-61.2,38.5-109.9,54.3
		c-94.8,30.4-172.6,32.4-272.4,6.9c-67.7-17.5-97.3-18.7-135.8-5.3c-14.6,5.3-171.9,76.6-349.8,158.9l-323.4,150l1.2,30.4l1.2,30
		l466.1,219.7c256.6,120.8,475.5,223,486.4,226.6c38.9,13.4,75,12.5,133.7-2.4c50.2-13,55.9-13.7,123.6-13.4
		c111.4,0,176.3,12.2,236.7,43c43,22.3,85.5,64.1,103.4,102.1c22.7,47.5,30.8,107,19,145.5c-11,36.5-90,134.6-173.8,216.5
		l-46.6,45.4l-2.9,39.7c-6.5,94.4-34.8,213.6-65.3,273.2c-21.1,42.5-72.5,84.7-118.3,98.5c-93.6,27.1-186.5-9.3-292.2-115.2
		c-40.5-40.5-59.2-70.1-95.6-152.4c-14.2-32-32-67.7-40.1-79.4c-31.6-47.5-39.3-52.7-226.1-144.3c-95.6-47-173.5-84.7-173.5-83.9
		c0,0.4,4.5,11,9.8,22.7c41,92.8,62.4,221.7,57.9,344.1c-2,49.9-6.1,80.2-18.7,145.5l-16.3,82.6l27.6,29.6
		c129.7,136.2,230.2,320.2,280.4,512.3c53.1,202.3,52.6,453.5-0.4,668.8c-62.8,254.5-200.2,484.4-394.8,660.3
		c-119.6,107.8-199,159.3-329.5,212.8c-191.7,78.7-484.7,150.8-710.5,174.7C5203,11324.5,4948.1,11330.2,4899.8,11326.5z
		 M5250.5,11124.3c247.2-28.4,537.9-106.2,711.7-190.5c189.7-92,388.3-310.1,482-528.9c45-104.2,73.4-212.4,87.6-330.3
		c8.5-68.1,7.3-243.2-1.6-304c-23.5-158.5-82.6-312.5-166.6-433.3l-16.6-23.9l-2.9,17.8c-4.8,31.2-3.3,133.3,2.9,183.2
		c4.5,40.1,10.5,62,34.1,131.7c47.5,138.2,52.3,160.9,61.6,277.7c8.9,117.6-0.4,193.3-30.8,254.2c-13.4,26.4-51.4,77-57.9,77
		c-2,0-33.2-31.2-69.3-69.3l-66.5-68.9l8.5-8.9c23.5-24.7,29.6-77.8,21.4-180c-6.9-81.1-12.5-106.2-45.4-201.4
		c-36-103-43-132.1-50.2-207.1c-7.7-77-7.7-145.5,0-223c9.8-101.3,13.7-125.6,49.9-306l23.1-115.5v-79
		c-0.4-105.4-13-171.1-46.6-241.2c-35.3-73.4-73.4-97.3-253.3-159.7c-109-38.1-167-68.5-261.9-137
		c-100.5-72.5-161.3-185.3-168.6-312.1l-2.4-41.8l-14.6-4.1c-30.8-8.9-113.9-23.9-164.6-30c-95.6-11.3-216-15.4-389.1-13.4
		c-192.1,2.4-259.4,8.5-363.2,31.6l-39.3,8.9l-2.4,18.2c-1.2,10.1-2.4,26.7-2.4,36.9c-0.4,40.5-23.1,118.8-47.8,162.5
		c-34.5,61.2-73,105.4-126.5,145.5c-93.2,70.1-128.1,87.6-252.9,126.8c-185.3,57.9-233.5,92.4-270,193
		c-25.5,70.1-39.3,169.8-34.8,246c1.6,22.3,12.5,90.8,24.7,152c41.8,212.8,50.2,273.6,53.5,389.5c4.5,156.5-4.5,212-55.9,356.7
		c-28.4,80.7-35.7,112.6-42.5,194.9c-8.9,104.9-4.1,153.6,18.2,178.3l11.8,13l-67.7,70.1l-67.3,70.5l-21.1-22.7
		c-57.9-62.8-79.4-151.5-70.1-289.4c9.3-135.8,15.8-167.8,60.8-292.2c31.6-87.9,36.9-114.3,39.3-204.7c1.2-44.6,1.2-97.3-0.8-117.1
		l-2.9-36l-13.7,21.9c-25.2,39.7-81.9,158.9-100.9,212.4c-81.4,226.2-106.6,459.2-70.1,650.5c19,101.3,44.6,176.7,94.4,277.7
		c104.6,213.2,265.1,379.3,464.1,479.9c213.6,108.2,494.1,175.9,826.8,199C4941.2,11135.6,5185.2,11131.5,5250.5,11124.3z
		 M7126.3,8851.7c6.5-8.1,24.3-68.1,33.6-113.5c5.3-27.1,8.9-63.6,10.1-104.6c1.6-42.2,4.1-68.5,8.5-80.7
		c4.8-14.2,23.9-35.3,92.4-103.4c94.9-94.4,127.8-132.9,120.9-143.9c-11.8-18.7-50.2-29.6-126.8-35.7c-51.1-3.6-61.6-2.9-123.6,11.8
		c-88.4,21.1-150.8,20.2-226.6-3.6c-23.1-7.3-662.7-305.2-894.9-417c-8.5-3.6-16.3-6.5-17-5.3c-2.4,2.4,11,68.1,23.9,115.1
		c12.2,44.6,43.7,134.9,49.4,139.9c1.6,2,168.2,84.3,370.1,183.2l366.8,179.6l31.6,30.4c43,40.5,76.2,86.4,100.9,137.8
		c70.1,145.9,60.4,130.1,101.3,166.2c32,27.6,63.2,48.7,72.5,48.7C7121,8856.5,7123.8,8854.1,7126.3,8851.7z M2908.2,8827.3
		c15.8-8.1,36-23.1,52.6-39.7c23.9-23.9,31.2-35.7,64.4-101.8c20.2-41,45.4-87.1,55.9-102.5c23.1-34.8,69.7-82.3,98.5-100.9
		c53.1-33.6,264.3-141.1,473.8-241.2c232.6-111.1,273.2-130.9,276.5-135.8c13.7-21.9,72.2-228.2,72.2-255.4
		c0-1.2-71.8,32.4-158.9,75c-191.7,92.8-449.5,215.6-623.4,297.1c-113.9,53.5-131.3,60.4-164.2,65.7c-49.4,8.1-135.4,4.8-214.8-8.9
		c-64.4-11-106.2-12.5-146.7-6.1c-31.2,5.3-73.7,18.2-84.3,25.9c-6.9,4.8-7.3,6.9-2.9,15.4c16.3,29.6,53.1,70.5,112.3,122.8
		c66.9,59.6,89.1,83.5,98.9,105.4c2.9,6.9,7.7,47.5,11,95.3c6.5,96,7.7,104.9,18.2,145.9c8.9,32.4,21.4,56.7,29.6,56.7
		C2879.8,8840.3,2894,8834.7,2908.2,8827.3z M5830,7987.1c-11-38.9-23.5-114.3-26.7-158c-2-26.4-0.8-45.4,4.1-68.9
		c21.4-109.9,16.6-243.6-14.2-366.8c-37.3-150.3-175.1-320.2-317.8-392.3c-35.3-17.5-122.8-48.7-175.1-62
		c-68.9-17.5-111.9-23.5-209.6-28.8c-97.3-5.3-232.6-0.4-308.4,11c-83.5,12.5-200.2,46.6-259.4,75.4
		c-112.3,54.7-244,204.3-294.7,334.4c-30.4,78.7-45.4,171.9-45.4,283.3c0,66.5,1.6,90,9.3,131.7c9.8,54.7,9.3,85.9-2,153.6
		c-3.3,18.7-5.3,34.8-4.5,35.7c2.4,2,24.7-80.2,39.3-142.6c11-48.7,21.4-111.4,35.7-212.8c5.3-36.5,8.5-50.2,12.5-49.4
		c3.3,0.8,4.1-1.6,2.4-6.9c-4.8-15.4,94.8-105.8,163.3-147.6c108.7-66,252.1-106.2,430.4-120c222.1-17.8,377.8-2.9,538.7,51.1
		c142.3,47.5,261,126,307.2,203.1c10.1,17,10.1,17.5,2.9,23.1c-7.3,5.7-7.3,6.1,2,4.8c9.8-0.8,10.1,0.4,15.4,39.7
		c21.1,163,40.1,252.5,80.7,382.2C5835.3,8020.4,5843.4,8037,5830,7987.1z M4022.7,7337c12.5-47,29.2-92,45.8-125.3l9.8-19
		l-302-160.1c-225.4-119.1-305.6-163.7-316.6-175.1c-24.7-25.9-58.8-73.7-94.1-132.5c-53.9-89.6-70.5-113.5-103-150.3
		c-28.4-31.6-54.7-52.6-65.7-52.6c-10.1,0-18.2,21.9-22.3,57.9c-13,123.6-16.6,155.3-24.3,195.4c-4.5,24.7-11.8,51.9-16.6,61.2
		c-5.3,11-41.3,48.2-103.7,107.4c-52.3,49.9-98.5,96-102.5,103c-16.3,25.9-6.1,38.5,39.3,49c50.2,11.8,98.9,9.8,157.3-5.7
		c87.1-23.1,141.4-25.9,216.8-10.5c47,9.3,160.9,55.2,312.5,125.3c65.3,30,313.7,155.6,340.9,171.9c7.3,4.5,14.2,7.7,14.6,6.9
		C4009.8,7382.8,4015.9,7361.8,4022.7,7337z M6295.4,7243c164.2-76.2,307.2-141.4,317.8-145.9c41.3-16.3,76.2-21.9,133-21.4
		c49.4,0,60.8,1.6,117.6,15.4c56.7,14.2,66.5,15.4,101.3,13.4c26.7-1.2,48.7-5.3,70.9-13c32.9-11,58.8-24.3,58.8-30.4
		c0-7.3-60.8-67.7-111.1-110.7c-67.7-57.6-98.1-86.4-107.4-101.8c-10.1-16.6-15-45.4-23.1-138.2c-8.9-108.7-22.7-171.4-38.9-182
		c-8.5-5.3-37.3,13.7-81.1,54.3c-30,27.6-32.9,32-64.1,95.3c-38.5,78.2-67.3,120-117.6,170.6c-31.2,31.2-44.2,41-82.3,61.2
		c-31.6,17-535.4,278.5-544.7,282.5c-0.4,0.4,6.5,15,14.6,32.9c18.2,37.7,38.5,97.7,45.4,132.1c2.4,13,6.5,23.9,8.5,23.9
		C5995,7381.2,6131.2,7319.1,6295.4,7243z"/>
	<path d="M4555.4,9466.1c-2-0.8-71.3-9.8-153.2-19.9c-167.4-20.7-262.6-35.7-292.6-45c-96.9-31.2-165.8-110.7-180.8-208.3
		c-6.9-45.4-0.8-75.4,30.4-152.8c85.2-208.8,81.9-202.6,141.9-263.1c54.3-53.9,106.6-82.3,180.8-97.3c63.2-12.5,122-0.8,176.3,35.3
		c33.6,22.7,49,38.5,113.5,119.1c98.5,122.8,185.6,267.5,199,329.9c17,80.2-1.6,173.8-45.8,230.6c-28.8,36.9-57.9,57.6-96.5,67.7
		C4606.4,9468.2,4565.5,9470.2,4555.4,9466.1z"/>
	<path d="M5377.3,9462.5c-34.1-9.3-54.3-21.4-81.1-49c-28.4-29.2-49.9-68.9-60.4-113.1c-8.5-35.7-9.3-101.3-2-135.8
		c18.2-83.1,168.6-311.3,273.6-415.8c71.3-70.5,148.8-89.6,248.5-60.4c59.2,17,102.5,42.5,147.1,86.7
		c43.7,43.4,64.4,74.2,85.5,125.6c10.5,25.9,30.8,75.8,45.8,111.1c36.5,88.4,43,110.7,43,150.3c0,82.3-40.5,157.3-109.9,203.5
		c-47,31.2-75.4,40.1-182.4,55.9c-112.3,17-323.1,43.4-360.3,45.4C5409.4,9467.7,5389.5,9466.1,5377.3,9462.5z"/>
	<path d="M5287.4,8485.8c-15,77.4-81.9,198.6-144.7,263.8c-23.1,23.5-94.1,82.6-99.3,82.6c-0.8,0-1.7-0.6-2.7-1.4
		c-1.7,3.2-4.4,5.5-5.9,5.1c-1.6,0-20.3-14.2-41.4-31.6c-85.9-70.5-144.3-151.5-184.4-254.9c-23.5-60.8-31.6-117.6-32-217.7
		c-0.4-77.4,0.4-87.9,8.9-117.6c41-141.4,108.7-136.2,241.2,19c4.9,5.8,8.5,10.2,11.1,13.8c19.3-30.6,101.7-110.6,133.4-126.3
		c27.1-13,51.1-14.2,66-2.9c29.2,21.4,52.7,72.5,61.6,134.6C5307.3,8307.8,5302,8411.6,5287.4,8485.8z"/>
</g>
<path d="M980,957.8c-83.8,0-157-12.8-223.8-39.2c-57.7-22.8-100.9-51.6-139-77c-46.8-31.3-83.8-56-128.4-56
	c-54.6,0-87.7,25.9-129.7,58.7C294.5,894.9,214,957.8,20,957.8v-30c82,0,149.4-11.6,206.3-35.5c49.1-20.6,83.8-47.7,114.4-71.6
	c44.7-34.9,83.3-65.1,148.2-65.1c53.7,0,96,28.3,145,61.1C708,866.2,800.3,927.8,980,927.8V957.8z"/>
</svg>
