<svg id="Capa_1" data-name="Capa 1" xmlns="http://www.w3.org/2000/svg" viewBox="0 0 792.4 651.56"><defs><style>.cls-1{fill:#c18721;}.cls-2{fill:#1f77b4;}.cls-3{fill:none;stroke:#000;}.cls-4,.cls-7,.cls-8{isolation:isolate;}.cls-4,.cls-7{font-size:16px;}.cls-4,.cls-8{font-family:HelveticaNeueLTStd-Roman, Helvetica Neue LT Std;}.cls-5{letter-spacing:-0.02em;}.cls-6{letter-spacing:0em;}.cls-7{fill:#7b7b7b;font-family:Arial-BoldMT, Arial;font-weight:700;}.cls-8{font-size:14px;}</style></defs><rect id="undefined_-_otros" data-name="undefined - otros" class="cls-1" x="85.13" y="242.11" width="118.69" height="357.88"/><rect id="undefined_-_arsenico" data-name="undefined - arsenico" class="cls-1" x="210.75" y="472.22" width="118.69" height="127.77"/><rect id="undefined_-_plomo" data-name="undefined - plomo" class="cls-1" x="336.36" y="559.78" width="118.69" height="40.21"/><rect id="undefined_-_mercurio" data-name="undefined - mercurio" class="cls-1" x="461.98" y="595.91" width="118.69" height="4.08"/><rect id="undefined_-_cadmio" data-name="undefined - cadmio" class="cls-2" x="587.59" y="599.99" width="118.69"/><path class="cls-3" d="M78.71,600.49h635"/><line class="cls-3" x1="144.48" y1="599.99" x2="144.48" y2="605.99"/><text class="cls-4" transform="translate(117.09 626.09)">Ot<tspan class="cls-5" x="17.2" y="0">r</tspan><tspan class="cls-6" x="22.24" y="0">os</tspan></text><line class="cls-3" x1="270.09" y1="599.99" x2="270.09" y2="605.99"/><text class="cls-4" transform="translate(235.11 626.09)">Arsénico</text><line class="cls-3" x1="395.71" y1="599.99" x2="395.71" y2="605.99"/><text class="cls-4" transform="translate(365.63 626.09)">Plomo</text><line class="cls-3" x1="521.32" y1="599.99" x2="521.32" y2="605.99"/><text class="cls-4" transform="translate(485.69 626.09)">Me<tspan class="cls-5" x="22.53" y="0">r</tspan><tspan x="27.57" y="0">curio</tspan></text><line class="cls-3" x1="646.94" y1="599.99" x2="646.94" y2="605.99"/><text class="cls-4" transform="translate(614.36 626.09)">Cadmio</text><text class="cls-7" transform="translate(701.33 620.09)">Elementos</text><text class="cls-7" transform="translate(28.64 28.18)">Porcentaje</text><text class="cls-7" transform="translate(128.26 228.56)">65%</text><text class="cls-7" transform="translate(249.11 458.8)">23%</text><text class="cls-7" transform="translate(379.63 550.49)">7%</text><text class="cls-7" transform="translate(504.64 585.04)">0,5%</text><text class="cls-7" transform="translate(623.32 585.04)">0,07%</text><path class="cls-3" d="M72.21,600.49h6.5v-552h-6.5"/><line class="cls-3" x1="78.21" y1="600.49" x2="72.21" y2="600.49"/><text class="cls-8" transform="translate(47.31 605.69)">0.0</text><line class="cls-3" x1="78.21" y1="545.29" x2="72.21" y2="545.29"/><text class="cls-8" transform="translate(47.31 550.49)">10</text><line class="cls-3" x1="78.21" y1="490.09" x2="72.21" y2="490.09"/><text class="cls-8" transform="translate(47.31 495.29)">20</text><line class="cls-3" x1="78.21" y1="434.89" x2="72.21" y2="434.89"/><text class="cls-8" transform="translate(47.31 440.09)">30</text><line class="cls-3" x1="78.21" y1="379.69" x2="72.21" y2="379.69"/><text class="cls-8" transform="translate(47.31 384.89)">40</text><line class="cls-3" x1="78.21" y1="324.49" x2="72.21" y2="324.49"/><text class="cls-8" transform="translate(47.31 329.69)">50</text><line class="cls-3" x1="78.21" y1="269.29" x2="72.21" y2="269.29"/><text class="cls-8" transform="translate(47.31 274.49)">60</text><line class="cls-3" x1="78.21" y1="214.09" x2="72.21" y2="214.09"/><text class="cls-8" transform="translate(47.31 219.29)">70</text><line class="cls-3" x1="78.21" y1="158.89" x2="72.21" y2="158.89"/><text class="cls-8" transform="translate(47.31 164.09)">80</text><line class="cls-3" x1="78.21" y1="103.69" x2="72.21" y2="103.69"/><text class="cls-8" transform="translate(47.31 108.89)">90</text><line class="cls-3" x1="78.21" y1="48.49" x2="72.21" y2="48.49"/><text class="cls-8" transform="translate(47.31 53.69)">100</text></svg>