<?xml version="1.0" encoding="utf-8"?>
<!-- Generator: Adobe Illustrator 25.2.3, SVG Export Plug-In . SVG Version: 6.00 Build 0)  -->
<svg version="1.1" xmlns="http://www.w3.org/2000/svg" xmlns:xlink="http://www.w3.org/1999/xlink" x="0px" y="0px"
	 viewBox="0 0 800 800" style="enable-background:new 0 0 800 800;" xml:space="preserve">
<style type="text/css">
	.st0{fill:#063F5C;}
	.st1{fill:#F27F0C;}
	.st2{fill:none;stroke:#063F5C;stroke-width:2;stroke-miterlimit:10;}
	.st3{fill:none;stroke:#F27F0C;stroke-width:2;stroke-miterlimit:10;}
	.st4{fill:#F2AC20;}
	.st5{opacity:0.68;fill:#063F5C;}
	.st6{enable-background:new    ;}
	.st7{font-family:'HelveticaNeueLTStd-Roman';}
	.st8{font-size:21px;}
	.st9{font-family:'HelveticaNeueLTStd-Bd';}
	.st10{font-size:34px;}
</style>
<g id="Capa_1">
	<path class="st0" d="M-1002.2-916.6c1.3-3.2,2.5-6.4,4.6-9.2c2.1-2.8,5.9-3.9,9.2-2.6c2.7,1.2,2.5,3.6,2.5,6c0,1.2-1.3,2.8,0.7,3.6
		c1.8,0.7,3.1,0,4.5-1.3c6.3-6.3,13.9-8.5,22.8-7.3c14.2,2,24,10.3,32,21.3c10.8,14.9,12.7,31.5,9.5,49.2
		c-2.7,13.8-6.9,27.2-12.5,40.1c-2.8,6.5-6.7,12.6-11.4,17.9c-1.6,1.8-1.9,3.2-0.8,5.6c5.3,11.4,5.6,24.5,0.6,36
		c-9.1,21.6-25.1,35.2-48.2,40c-6.4,1.4-13,0.4-19.6,0.2c-5.1-0.2-10.3-0.4-15.4,0.7c-7.3,1.6-12.8,7.7-12.1,14
		c0.4,3.3,1.2,6.3,4.6,8.4c5.6,3.4,5.9,9.2,5.1,15c-1.1,8.7-4.6,16.7-8.4,24.6c-0.6,1.3-2.2,2.5-0.6,4.3s3.2,1.9,5.5,1
		c10.2-4.3,21.4-5.3,32.1-2.9c4.2,0.9,8.5,1.5,12.5,3c2.7,1,4.3-1,5.9-2.3s0-2.8-0.6-4c-3.5-7.4-6.6-14.9-7.8-23
		c-2-12.7,6.4-21.2,19.2-19.1c2.2,0.3,1.9-0.5,1.6-1.9c-0.4-1.8-0.6-3.7-0.8-5.5c-0.4-7.7,9.4-13.1,15.4-11.1
		c6.2,2,11.3,6.4,14.2,12.3c4,7.6,5.8,15.6,3,24.1c-1.8,5.5-5.4,9.4-11.3,10.5c-5.7,1.3-11.4-2.3-12.7-8v-0.1
		c-0.3-1.2-0.5-2.4-0.7-3.6c-0.9-4.7-4.5-7.2-10-6.9c-4.1,0.3-7.3,3.7-7.4,7.8c-0.3,8.1,2.2,15.7,5.2,23.1c0.8,1.9,2.2,1,3.3,0.5
		c6.2-2.5,12-1.2,17.5,1.6c6.8,3.5,9.8,12.9,6.3,19.8c-2.8,5.9-7.3,10.8-12.8,14.1c-1.1,0.5-1.8,1.7-1.7,2.9
		c0.6,5.7-0.2,11-3.6,15.8c-0.5,0.8-0.5,1.8-0.2,2.7c3.8,22.9-9.9,43.6-32.4,48.8c-2.7,0.6-3.4,1.8-3,4.2c0.4,1.8,0.4,3.7,0,5.5
		c-0.7,2-1.7,2.3-3.2,0.8c-0.6-0.6-1.1-1.3-1.7-1.9c-1.7-1.8-3.6-2.2-5.7-0.5c-1,0.7-2,1.4-3,2.1c-2.2,1.4-3.8,0.7-4.2-1.9
		c-0.3-1.6-0.4-3.2-0.3-4.7c0.3-2.2-0.4-3-2.6-3.6c-12.9-3.5-23-10.8-28.9-23c-3.7-7.8-4.9-16.6-3.4-25.2c0.3-1.5,0-3.2-0.9-4.5
		c-2.4-3.8-3.4-8.4-2.9-12.9c0.2-2.2-0.1-3.5-2.4-4.8c-6-3.4-10.8-8.5-12.9-15c-3.3-10.4,1.7-19.9,15.1-21.2
		c3.4-0.3,6.8,0.2,9.9,1.5c1.8,0.8,2.7,0.2,3.4-1.6c2.4-5.9,4.1-12.1,4.9-18.4c0.4-2.4,0.2-4.9-0.6-7.2c-1.4-3.5-5.1-5.5-8.8-4.7
		c-0.9,0.2-1.8,0.5-2.7,0.6c-3.2,0.6-5,2.2-5.1,5.6c-0.1,1.1-0.3,2.2-0.6,3.3c-2,8.6-11.3,11.9-18.4,6.5c-5.4-4.2-7.2-10-7-16.3
		c0.1-8,3.1-15.8,8.4-21.8c2.2-2.4,4.9-4.3,7.9-5.6c5.3-2.4,9.9-1,14,2.3c3.9,3.1,4,7.6,3.2,12.1c-0.1,0.5-0.3,1.1-0.4,1.6
		c-0.1,0.5-0.6,1.5,0.2,1.8c0.8,0.1,1.7,0,2.4-0.3c0.9-0.2,0.8-1,0.5-1.6c-2.4-6.9-1.3-14.1-1.6-21.2c-0.5-11.2,4.2-20.7,12.1-28.6
		c3.6-3.6,7.6-6.6,12.1-9c6.1-3.3,10.2-8.6,14.3-14c3.7-4.8,6.7-10.2,11.3-14.2c0.6-0.4,0.9-1.2,0.5-1.9c-0.1-0.1-0.2-0.2-0.2-0.3
		c-3.8-4.4-3.2-9.6-2.3-14.7c1.5-8.4,3.5-16.7,4.9-25c1.5-8.6,1.4-17.3,2.1-26c0.1-1.5-0.6-3-2-3.7c-3.1-2.1-6-4.5-8.7-7.1
		c-2.5-2.3-4.3-5.3-5-8.6c-0.2-1.2-0.9-2.3-2-2.9c-4.5-3.1-7.5-6.8-5.4-13.1c-4.1,1.9-7.1,4.5-10.8,5.9c-0.8,0.3-0.8,1.2-0.8,2
		c-1,19.5-1,39.1,2.3,58.4c1.1,6.7,2.8,13.4,4.1,20.1c0.6,2.5,0.8,5,0.6,7.5c-0.6,7.1-5.3,10.9-11.5,12.6
		c-14.5,4.1-27.7,1.4-39.3-8.5c-11.2-9.6-17.9-22.1-22.7-35.8c-4.2-12-8-24.2-9.2-36.9c-2.4-24.5,6.9-43.7,27-57.5
		c6.8-4.7,15.1-6.7,23.3-5.6c9.3,1.1,16.5,6,19.8,15.2c1.3,3.5,2.1,7.2,3,10.8c0.9,3.4,2.1,3.9,4.8,1.7c5.1-4,8.4-9.8,9.2-16.2
		c1.9-14.9,1.6-29.9,1-44.8c-0.7-18.3-1.6-36.6-4.3-54.7c-0.7-4.7-2-6-6.4-7.3c-8.6-2.5-17.3-1.4-25.9-0.8
		c-8.7,0.7-17.3,1.9-25.8,3.7c-4,0.8-4.1,0.7-3,4.8c0.6,2.3,1.2,4.5,2,6.7c1.2,3.8,4.8,6.3,8.7,6.3c7.4,0.4,14.5-1.6,21.6-3.2
		c3.8-0.8,7.6-1.9,11.5-2.6c3.2-0.6,4.2,0.3,4.2,3.5c0,6.2,0.6,12.4-0.5,18.5c-1,5.5-3.3,10-8.3,13c-4.6,2.8-9.3,5.2-14,7.7
		c-14.6,7.9-29.4,15.6-43.8,23.8c-8.1,4.5-13.7,11.5-17.5,20.2c-13,28.8-21.6,58.9-27.9,89.8c-1.7,8.3-6,15.7-10.4,22.9
		c-11.6,18.7-21.8,38.2-30.6,58.3c-6,14.4-10.4,29.5-14.9,44.5c-3.7,12-8.2,23.6-13.5,35c-3.4,7.5-6.8,14.9-8.8,23
		c-3.1,12.4-8.8,23.8-15.2,34.9c-3.8,6.8-5.8,14.5-5.7,22.2c0,5.6,0.1,11.2-0.1,16.8c-0.1,3.4,1.5,6.7,4.3,8.7
		c0.9,0.8,2.2,1.4,2.7,2.4c2.8,5,7.8,8,11.2,12.4c0.3,0.5,0.7,0.9,1.2,1.2c0.7,0.4,1.5,1.1,2.3,0.7c1-0.5,0.4-1.5,0.2-2.3
		c-1.5-8.4-2.1-16.9-0.3-25.3c0.2-1,0.4-2,0.7-3c0.5-1.4,1.2-2.6,2.9-2.6c1.9,0,2.2,1.5,2.4,3c0.9,6.3,1.8,12.6,2.7,18.9
		c0.3,3.4,1,6.8,2.1,10.1c1.3,3.3,2.9,3.5,5.3,0.9c1.3-1.5,1.9-3.5,1.7-5.4c-0.3-7.9-0.7-15.9-0.9-23.8c-0.1-4.6,1.2-9.1,2.5-13.5
		c1.4-4.8,2.7-9.7,3.8-14.7c0.3-1.5,0.5-3.5,2.5-3.7c2.2-0.3,2.7,1.8,3.3,3.2c2.3,5.1,3.3,10.5,4.4,15.9c0.6,3.4,2.3,6.6,4.8,9
		c1,1,2.2,1.7,3.6,2.1c1.3,0.4,2.6,0.6,3.7-0.5c1-1.1,0.2-2.2-0.3-3.3c-2.6-5.4-1.8-11-1-16.5c0.7-4.8,1.7-9.6,2.8-14.3
		c0.8-3.6,0.6-7.3-0.6-10.8c-1.7-5.1-3.9-10.1-5.1-15.4c-1.5-6.7-0.2-12.9,2.1-19.2c3.7-9.8,10.1-17.9,16-26.2
		c7.4-10.4,15.1-20.4,21.9-31.2c8.9-14.4,15.8-30,20.3-46.3c3-10.5,8.2-20.1,14.4-29c2.3-3.3,3.9-7,7.2-9.6c1-0.8,1.9-1.9,3.4-1.4
		c1.5,0.5,1.3,1.9,1.7,3c4.1,16,6.9,32.4,8.1,48.9c1.1,14.4-0.3,28.5-6.1,42.1c-7.1,16.6-14,33.3-19.1,50.6
		c-7.2,24.2-15.5,48-19.1,73.2c-1.7,12-1.5,24-1,36.1c0.7,18.3,2.2,36.6,3.8,54.8c1.2,14.1,2.2,28.1,4,42.1
		c2.1,16.7,4.4,33.4,8.6,49.7c0.3,1.2,0.3,2.4-1.1,2.7c-1.4,0.3-2.3-0.7-2.6-2c-1.2-5.6-2.4-11.1-3.5-16.8
		c-4.2-22.7-6.6-45.7-8.5-68.7c-1.9-22.5-3.7-45.1-4.8-67.7c-0.8-17.5,1.7-34.7,5.5-51.7c6.7-30,16.6-59,27.8-87.6
		c3.6-9.2,7.6-18.3,10.5-27.8c2.3-8.1,3.1-16.6,2.4-25c-1.2-16-3.6-31.8-7.2-47.3c-0.2-1,0-2.7-1.1-3c-1.3-0.3-1.8,1.4-2.5,2.3
		c-8.9,11.2-15.4,24.2-19.1,38.1c-5.1,18.9-14.5,35.8-25.4,51.9c-7.1,10.7-15.5,20.4-22.2,31.4c-3.5,5.7-7.1,11.4-9.7,17.7
		c-3,6.9-2.8,14.8,0.5,21.5c4.5,9.8,5.4,19.4,2.1,29.6c-1.5,4.6-1.6,9.6-1.5,14.5c0,2.4,0.6,4.9,1.8,7c1.9,3.3,0.4,6.6-3.3,7.7
		c-3.7,1.1-6.7-0.2-9.4-2.5c-3.1-2.6-5.3-6.1-6.2-10.1c-1-4.9-1.9-9.9-4-15.1c-1.4,7.7-4.4,14.4-5.2,21.7c-1,8.4,0.2,16.8,0.4,25.2
		c0.1,4.1,0.2,8-3.1,11.2c-3.8,3.7-8.1,3.1-10.5-1.6c-1.1-2.6-1.8-5.3-2.1-8.1c-0.8-5.4-1.6-10.7-2.5-16.9c-1,5.1-1,10.4,0,15.5
		c0.4,2.5,0.9,5,1.3,7.5c0.5,2.2-0.9,4.5-3.1,5c-0.7,0.2-1.4,0.2-2.1,0c-1.6-0.2-3.1-0.9-4.2-2.1c-3.3-4.3-8.4-6.9-11-11.8
		c-0.9-1.5-2.1-2.9-3.6-3.9c-3.7-2.6-5.8-6.8-5.8-11.3c-0.1-8.4-0.1-16.8,0.6-25.2c0.6-6.1,3.2-11.5,6.1-16.7
		c7-12.3,12.4-25.4,16.1-39c1.8-7.1,5.7-13.4,8.5-20.1c6.2-15.2,11.5-30.7,16.3-46.3c8.6-28.2,21-54.6,36.2-79.7
		c5-8.2,9.3-16.7,13.6-25.2c2.9-6,3.9-12.5,5.2-18.9c5.4-25.4,13.2-50.3,23.4-74.2c1.4-3.4,3-6.6,4.8-9.8c4.4-8,10.9-13.5,19-17.6
		c17.1-8.6,33.5-18.6,50.6-27.2c2.3-1.3,4.4-2.8,6.4-4.5c1.3-1,2.3-2.5,2.7-4.2c1.5-6.4,2.2-13,2.2-19.5c0-2.1-0.6-2.5-2.7-2
		c-9.1,1.9-18.1,4.6-27.5,5.3c-8.1,0.7-13.5-2.6-16.1-10.3c-2.1-6.1-3-12.5-4.3-18.9c-0.6-3.6-2.5-6.9-5.3-9.2
		c-1.7-1.6-3.3-3.3-4.7-5.1c-1.2-1.5-1.5-3.6-0.6-5.3c1.2-3.6,2.9-6.9,5.1-9.9c1.6-2.3,3.1-4.7,4.4-7.2c2-3.6,2.1-7.2,1.1-11.1
		c-3.9-15.7-3.8-31.3,1.4-46.7c4.3-12.8,11.8-23.2,23.4-30.2c7.2-4.3,15-7.6,23.8-8.6c13.7-1.5,27.2-1.3,40.4,3
		c15.6,5.2,28.2,14.4,37.2,28.2c5.2,7.9,7.4,17,8.2,26.3c1.7,18.3-0.8,36.8-7.5,53.9c-4.7,12-11.8,23-20.9,32.2
		c-1.9,1.7-3,4.1-3.2,6.6c-0.5,8.7-0.9,17.4-0.7,26.1c0.2,6,3.8,9.8,8.7,12.5c6.8,3.8,13.9,7.3,20.8,11.1
		c11.3,6.2,22.4,12.8,34,18.5c8,4,13.5,10.4,17.3,18.1c7.6,15.4,13.2,31.5,18.3,47.9c4.1,13.6,7.5,27.4,10.2,41.4
		c2.2,10.6,7.2,19.9,12.6,28.9c12.2,19.9,22.8,40.6,31.8,62.1c5.3,12.8,8.8,26.2,13.3,39.3c5.6,16.1,11,32.2,18.5,47.5
		c1.6,3.2,2.2,6.8,3.2,10.2c3.4,11.3,8,22.2,13.9,32.4c4,7.2,7.1,14.5,7.3,23c0.2,7,0.3,14,0.2,21c0,4.3-2.2,8.3-5.7,10.8
		c-1.7,1.2-3,2.8-4.1,4.5c-2.8,4.6-7.6,7.3-10.9,11.5c-0.9,0.9-2.2,1.6-3.5,1.7c-3.6,0.9-6.1-1.5-5.5-5.2c0.9-5.4,2.3-10.8,2-16.4
		c-0.1-1.9-0.3-3.8-0.7-5.6c-1,6.2-1.9,12.5-2.9,18.8c-0.4,2.7-1,5.3-3,7.4c-2.4,2.5-5.2,2.7-8,0.6c-3.2-2.3-4.8-6.2-4.3-10.1
		c0.7-6.7,0.2-13.5,0.9-20.2c0.5-4.3-0.4-8.6-1.5-12.8c-1.3-5.2-2.8-10.3-4.3-15.7c-1.6,4.2-2.7,8.4-3.4,12.8
		c-0.6,4.6-2.9,8.8-6.4,11.9c-2.8,2.4-6,3.8-9.8,2.7c-3.2-1-5-4.2-3.5-6.8c3.1-5.2,2.4-10.7,1.7-16.1c-0.7-5.9-2.1-11.8-3.2-17.7
		c-0.4-2.2-0.3-4.5,0.4-6.6c1-3.5,2.2-7,3.6-10.3c4.4-10.2,3.1-19.7-2.3-29.2c-6.4-11.5-14.3-21.9-21.9-32.6
		c-10.6-14.8-20.8-30-27.3-47.2c-3.2-8.6-5.5-17.5-8.7-26c-3.2-8.7-7.7-16.9-13.4-24.2c-0.5-0.6-0.8-1.8-1.8-1.5s-0.8,1.4-0.9,2.2
		c-2.6,12.8-4.6,25.8-5.9,38.8c-0.8,8.4-0.4,16.8,1.3,25.1c1.4,7,4.1,13.6,6.8,20.2c8.7,21.3,16.7,42.8,23.3,64.9
		c5.6,18.4,10,37.2,13.1,56.1c1.7,10.4,1.5,20.9,1.1,31.3c-0.4,10.7-1,21.3-1.8,31.9c-1.3,17.6-2.9,35.2-4.5,52.8
		c-1.8,19.6-4.6,39.2-8.5,58.5c-0.9,4.5-1.9,9-3,13.4c-0.3,1.2-0.6,2.9-2.4,2.5s-1.7-1.9-1.3-3.4c3.8-13.6,5.9-27.6,8-41.5
		c3.4-22.7,4.9-45.5,6.9-68.3c1.5-17.2,2.5-34.5,3.2-51.8s-2.7-34.2-6.4-51c-2.7-12.4-7.5-24.1-10.7-36.3
		c-5.8-22-14.6-42.8-23.1-63.8c-3.4-8.3-5.3-17.2-5.7-26.2c-0.9-19.8,2.8-39.1,7-58.3c0.3-1.2,0.5-2.3,2.1-2.6s2.5,0.8,3.5,1.9
		c9.5,12,16.4,25.8,20.4,40.5c4.8,17.2,12.9,32.7,22.9,47.2c8.6,12.6,17.8,24.8,26.4,37.3c5,7.3,8.7,15.3,9.8,24.2
		c0.5,4.3-0.8,8.3-1.8,12.4c-0.4,1.6-0.9,3.2-1.7,4.8c-3.8,7.5-4,15.1-1.8,23.1c1.9,6.4,2.6,13.1,2,19.7c-0.2,2-0.7,3.9-1.7,5.6
		c-0.5,0.9-1,1.8-0.2,2.8c0.7,0.8,1.8,1.1,2.8,0.8c2.9-0.5,4.8-2.4,6.5-4.6c2.7-3.5,3-7.8,4-11.9c0.8-4,2.1-8,3.8-11.7
		c0.6-1.1,1.2-2.5,2.8-2.4s2.1,1.5,2.3,2.8c1.6,8.5,4.9,16.7,6.3,25.3c0.3,2.2,0.4,4.5,0.2,6.7c-0.3,7.1-0.6,14.2-0.9,21.3
		c0,0.9,0.1,1.9,0.4,2.8c0.7,1.9,1.9,3.8,4,3.9s2.6-2.1,3-3.8c2.1-8.2,2.7-16.6,4-24.9c0.2-1,0.3-2,0.5-3c0.2-1.3,0.6-2.7,2.2-2.8
		s2.5,1.1,3,2.5c1,3.8,1.6,7.7,1.8,11.6c0.6,5.7-0.7,11.2-1.4,16.7c-0.1,0.8-0.7,1.8,0.1,2.3s1.8-0.3,2.6-0.7
		c0.2-0.1,0.3-0.2,0.4-0.4c3-4.7,8.5-7.1,11-12.2c0.6-1,1.4-1.8,2.3-2.4c4.1-2.8,5.8-6.5,5.5-11.5c-0.3-6.8,0-13.6-0.4-20.5
		c-0.3-5.2-1.8-10.2-4.3-14.7c-8.1-14-14.4-29-18.7-44.7c-1.6-6.1-4.8-11.7-7.5-17.5c-7.3-15.5-12.3-31.9-17.2-48.3
		c-7.6-25.5-18.8-49.4-32.2-72.4c-5.2-8.9-10.6-17.6-15.1-26.9c-3.3-6.6-4.8-13.5-6.3-20.5c-4.6-22-11-43.5-19.1-64.5
		c-2.3-5.8-4.8-11.6-7.4-17.3c-3.8-8.6-10.5-15.7-18.9-20c-16.8-8.7-32.9-18.5-49.8-26.9c-2-1-3.9-2.2-5.7-3.5
		c-5-3.6-7.9-8.3-7.9-14.7c0.1-8.7-0.3-17.4,0.6-26c0.2-2.6,1.3-5.1,3.2-7c16.3-15.9,24.7-35.7,27.9-57.8c2.1-14.4,2.1-29-3.4-42.9
		c-2.8-7.5-7.5-14.3-13.5-19.6c-5.7-4.9-11.6-9.8-18.5-13.1c-7.9-3.9-16.6-6-25.4-6.2c-8.6-0.1-17.2-0.5-25.7,1.7
		c-19,5-32.5,16.4-38.7,35.1c-4.3,12.6-5.1,26-2.4,39c0.6,3.1,0.9,6.3,1.5,9.4c1.1,5.5-0.7,10.1-3.9,14.4c-2.5,3.4-4.7,7-6.7,10.7
		c-1.1,2-0.5,3.5,1,5c1.7,1.7,2.8,0.4,4.1-0.4c2-1.2,4-2.4,6.1-3.5c4.1-2.2,8.9-2.7,13.3-1.5c1.7,0.4,3.4,0.9,5.1,1.5
		c12.6,4.5,25.4,8.3,38.4,11.3c8,1.9,13.1,6.8,16.2,14.1c1.1,2.5,1,5.2,1.2,7.7c2.4,30.9,4.1,61.9,3.4,93c0,1.1-0.1,2.1,0,3.2
		 M-1002.2-916.8v0.2 M-1002.2-917.2v0.4 M-1098.1-872c0.1,7.4,1.1,14.8,3,21.9c4.1,16.2,9,32.1,19,45.8
		c10.2,13.8,23.1,22.2,41.3,19.2c9.7-1.6,15.3-6,13.2-17.2c-2.3-12.1-5.5-24-6.2-36.4c-0.6-11.7-1.8-23.5-0.7-35.2
		c1.3-13.3-1-26.1-5.5-38.5c-2.6-7.1-8.5-11.2-16-12c-8-1-16.1,1-22.7,5.6C-1089.1-907.5-1097.7-891.9-1098.1-872L-1098.1-872z
		 M-918.1-871.9c0.2-13.2-4.2-24.8-12.3-35c-7.3-9.2-16.2-16-28.3-17.5c-7-0.9-13.4,0.1-18.7,5.3c-1.6,1.5-1.3,2.1,0.6,2.7
		c13.9,4,19.5,18.2,18.3,29.4c-0.1,1.1,0.1,2.3,0.5,3.3c2.2,5.6,3.4,11.5,3.4,17.5c0.1,8-1.9,15.3-13.1,16.4
		c-5.7,0.5-11.4-0.7-16.5-3.3c-3-1.5-3-1.5-3.2,2c-0.7,12.4-1.6,24.8-4.5,36.9c-1.3,5-2.2,10-2.8,15.1c-0.8,7.2,2.9,10.9,9.1,12.9
		c5.7,1.9,11.8,2.3,17.7,1.2c11.9-2.3,20.7-9.4,27.8-19c6.3-8.5,10.5-18.1,13.9-28C-922-844.9-918.5-858.1-918.1-871.9L-918.1-871.9
		z M-962.1-619.3c-2.5,0.9-3.2,2.3-2.8,4.7c0.5,3.3-0.4,6.6-2.7,9.1c-1.2,1.5-2.5,2-4.4,1.2c-3.1-1.1-6.2-2-9.5-2.5
		c-1.3-0.3-2.7-0.5-3.4,1c-3,6.6-7.3,12.5-9.2,19.8c-2.5,9.8-3.2,19.7-3.7,29.7c-0.2,3.3,0.2,3.5,3.5,2.5
		c21.3-6.6,32.3-24.8,28.2-46.7c-0.2-1.3-0.2-2.4,0.9-3.2c0.7-0.7,1.3-1.6,1.7-2.5C-961.5-610.5-962-614.8-962.1-619.3L-962.1-619.3
		z M-1051.3-618.7c-0.4,5.1-0.7,10,2.4,14c1.6,2,1.6,3.6,1.2,5.8c-1.6,10,0,19.7,5.4,28.3c5.4,8.6,13.6,13.7,23.1,16.8
		c2.2,0.7,3,0.1,2.9-2.1c-0.3-4.9-0.7-9.9-1-14.8c-0.8-12.5-5.2-23.8-11.5-34.5c-0.6-1.3-2.1-2-3.5-1.5c-2.5,0.6-5.1,1.1-7.6,1.9
		c-4.5,1.4-6.3,0.6-8-3.9c-0.8-1.9-1.1-4-0.7-6C-1048-617.1-1049-618.2-1051.3-618.7L-1051.3-618.7z M-1006-909.8
		c0.4-1.9,0.6-3.9,0.5-5.8c-0.6-11.2,0.3-22.4,0.4-33.6c0.2-15.7-1-31.4-2.4-47c-0.6-6.4-0.2-13-1.6-19.2c-1.6-7.3-4.5-14-12.8-16.2
		c-13.7-3.5-27.3-7.2-40.6-12.1c-7.9-2.9-15.2-2-21.8,3.6c4.3-1.4,8.5-2.9,13.1-2.5c8.8,0.7,16.2,5.4,24.1,8.8
		c0.5,0.2,0.9,0.8,0.8,1.4c-0.1,0.7-0.6,1.2-1.3,1.3c-1.7,0.2-3.3,0.5-5,0.6c-8.6,0.5-17.1,1.8-25.5,3.9c-1.5,0.4-2.1,1-1.8,2.5
		c0.3,1.5,1.3,1.9,2.7,1.6c0.5-0.1,0.9-0.2,1.4-0.3c15.6-3.1,31.3-5.2,47.3-4.2c9.9,0.6,14.1,3.5,15,12c1.7,14.8,2.9,29.6,3.7,44.4
		c0.4,8,0.5,16.1,0.7,24.1c0.3,10.8,0.5,21.7-1.4,32.4c-1.4,7.5-4.8,14-11.7,17.6c-3.2,1.6-4.3,3.3-3.4,6.5c0.1,0.4,0.1,0.7,0.1,1.1
		c0.2,1.6,0.9,2.2,2.4,1.3c3.1-1.7,6-3.7,8.8-6c3.2-2.9,3.8-7,5.9-10.4C-1007.4-905.8-1006.5-907.7-1006-909.8 M-1006.1-909.7
		L-1006.1-909.7 M-1039.2-653.2c1.3-1,1.3-1.1,2.7-4c3.7-7.4,6.6-15.1,7.5-23.3c0.8-6.9-1.5-10.5-7.9-13c-4.1-1.6-8.1-1-12,0.2
		c-1,0.3-2,0.9-2.9-0.1s-0.1-1.9,0.4-2.8c1.7-3.1,2.3-6.6,1.8-10c-0.1-2.2-1.5-4.1-3.5-5.1c-5.4-2.6-10.4-2-14.7,2.2
		c-7,6.7-9.8,15.1-9,24.7c0.6,6.8,4.4,11.3,10,12.3c3.8,0.8,7.7-1.5,8.7-5.3c0.6-1.9,1-4,1-6c-0.2-3.5,1.6-5.1,4.7-6
		c1.3-0.3,2.5-0.7,3.8-1c8.4-1.9,15,3.3,15,11.9c-0.2,7.9-2,15.6-5.2,22.8C-1039-655-1040-654.2-1039.2-653.2z M-936.6-687.6
		c-0.4-8.2-2.9-15.5-9-21.4c-3.7-3.5-7.8-4.8-12.8-3.1c-4,1.4-5.5,3.2-5.6,7.3c-0.2,3.1,0.6,6.2,2.2,8.9c0.5,0.7,0.9,1.5,0.3,2.3
		s-1.7,0.6-2.6,0.3c-1.7-0.5-3.4-1-5.2-1.2c-9.3-1.6-16.3,5.1-15.1,14.3c1.1,8.9,4.5,17,8.4,24.8c0.3,0.6,0.5,1.8,1.4,1.4
		s0.1-1.5-0.2-2.2c-3.2-7.3-5-15.1-5.1-23.1c0-6.8,4.7-11.6,11.4-11.7c3.4,0.1,6.7,0.9,9.7,2.5c1.5,0.7,2.4,2.3,2.2,3.9
		c0,2.4,0.4,4.9,1.1,7.2c1,3.7,4.7,5.9,8.4,5.3c3.5-0.5,6.5-2.7,8.1-5.8C-937.3-680.9-936.5-684.2-936.6-687.6L-936.6-687.6z
		 M-1043-635c-4.9-0.1-8.5,3.2-8.5,8c-0.1,4.1,3.4,7.3,8.1,7.5c4.9,0.2,9.3-3.6,9.5-8C-1033.9-631.4-1038.2-634.9-1043-635z
		 M-970.7-635c-5,0-9.4,3.4-9.4,7.3c0.1,4.2,4.4,8.1,9.1,8.1s8.4-3.1,8.5-7.1c0.2-4.4-3.1-8.1-7.5-8.3c0,0,0,0,0,0
		C-970.3-635-970.5-635-970.7-635L-970.7-635z M-1055.5-1034.1c-4.1-1.9-8-4.2-12.6-5.1c-3.5-0.8-7.1-0.6-10.5,0.4
		c-1.7,0.6-4,0.6-4.9,2.2c-0.7,1.3,1.2,2.5,1.5,4c0,0.1,0.1,0.2,0.1,0.3c0.2,2.8,1.8,2.9,4.1,2.3
		C-1070.5-1031.8-1063-1033.2-1055.5-1034.1L-1055.5-1034.1z M-1053.1-649.1c-5.4-0.2-9.3,3-8.4,7.2c0.6,3.5,2.9,6.4,6.2,7.8
		c2.5,1,3.8,0.4,4.7-2.2c0.8-2.3,1.5-4.6,2.4-6.8c2.1-5,1.7-5.6-3.7-5.9C-1052.3-649.1-1052.7-649.1-1053.1-649.1L-1053.1-649.1z
		 M-960.6-649.3c-1.7,0.3-3.3,0.5-4.9,0.9c-1.2,0.3-1.8,1-1.1,2.3c1.7,3.4,3.1,7,4,10.7c0.2,1.1,1.3,1.9,2.5,1.7c0,0,0,0,0,0l0,0
		c3.7-0.5,7.8-5.6,7.5-9.4S-955.8-649.1-960.6-649.3L-960.6-649.3z M-968-613.3c0.2-2.4-0.6-3.5-3.2-3.3c-2.6,0.2-5.2-0.6-7.3-2.3
		c-0.9-0.7-1.6-0.8-2,0.6c-0.6,2.1-1.3,4.3-2,6.4c-0.4,1.1-0.1,1.6,1.1,1.9c2.9,0.5,5.8,1.2,8.7,2.1c2.3,0.8,3.3-0.2,4-2
		C-968.3-611.1-968.1-612.1-968-613.3L-968-613.3z M-1045.4-613.6c0.1,5.2,1.5,6.3,6.2,5c0.3-0.1,0.5-0.1,0.8-0.2
		c2.3-0.8,5.7-0.2,6.7-2s-1.2-4.4-1.7-6.8c0-0.1-0.1-0.2-0.1-0.3c-0.3-1.7-0.9-2.1-2.4-0.9c-1.8,1.5-4.1,2.3-6.5,2.1
		C-1045-616.7-1045.7-615.5-1045.4-613.6L-1045.4-613.6z"/>
	<path class="st1" d="M-1185.8-700.5c-5.2,4.4-9.8,8.8-10.4,15.9c-0.3,2.4-1,4.7-1.8,7c-0.3,1-0.9,2.3-2.4,1.8
		c-1.2-0.5-0.9-1.6-0.7-2.7c3.2-16.3,7-32.5,13.8-47.8c2.2-5.2,4.8-10.1,7.7-14.9c6.8-10.7,11.9-22.3,15.2-34.5
		c0.8-2.9,2-5.6,2.5-8.6c0.2-1.2,0.3-3,2.2-2.6c1.5,0.4,1.2,2,1,3.1c-1.1,6.2-2.7,12.2-4.7,18.1c-1.4,3.9-2.7,7.9-2.5,12.2
		c2.3-5.6,4.6-11.2,7-16.7s4.7-11.4,7.3-17c1.6-3.3,4.7-5.2,7.7-7.1c0.8-0.6,1.9-0.5,2.6,0.3c0.9,0.9,0.6,1.9,0.2,2.9
		c-2.2,5.4-4.5,10.7-6.9,16c-4.8,10.5-8.5,21.5-13.7,32c-0.5,0.6-0.6,1.5-0.2,2.2c3.1-3.2,6.2-6.2,7.6-10.6
		c3.8-11.7,8-23.1,14.1-33.8c1.8-3.2,3.8-6.2,5.8-9.3c1.6-2.3,3.5-2.6,5.8-1.2c2.3,1.4,1.7,3.2,0.8,5.1
		c-4.8,10.4-10.7,20.4-14.1,31.4c-0.5,1.6-0.9,3.2-1.2,4.9c3-5.6,6.4-10.9,9.6-16.3c1.2-2,2.6-3.9,4-5.8c0.7-0.9,1.6-1.4,2.7-0.7
		c0.9,0.6,1.1,1.8,0.6,2.7c-0.8,1.5-1.6,2.9-2.5,4.4c-8.3,13.7-14.7,28.4-19.1,43.8c-0.9,3.3-0.2,6.6-1,10.2c3.5-2.7,4.9-6.3,6-10
		c0.1-0.3,0.2-0.7,0.4-1c0.8-1.3,0.6-4,2.9-3.2c2,0.7,0.7,2.8,0.3,4.2c-1.3,4.6-3.6,8.8-6.5,12.6c-6.5,8.7-12.6,17.6-17.4,27.4
		c-0.7,1.4-1.6,2.7-2.6,4c-0.5,0.7-1.2,1.3-2.2,0.7c-0.9-0.6-0.8-1.5-0.4-2.2c2.5-5.2,4.2-10.8,7.6-15.6c2.4-3.3,4.5-6.9,6.7-10.3
		c1-1.5,1-3.1,0.7-5.1c-1.1,0.8-1.9,1.9-2.4,3.1c-7.8,15.2-17.5,29.2-25.8,44c-2.5,4.6-5,9.2-7.3,13.9c-1.4,2.8-7.7,5.1-10.5,3.6
		c-1.6-0.9-2-3-0.5-5.2c1.7-2.5,2.7-5.3,4.3-7.9c5.6-9.1,7.2-19.3,8.6-29.6C-1186.7-695.4-1186.2-698-1185.8-700.5z M-1158-739.5
		c-8.8,5.5-22.4,37.1-19.7,45.8C-1169.4-708.4-1161.1-722.7-1158-739.5z M-1171.7-746c-7.7,14.1-17,27.5-19.8,44.6
		c2.3-3.3,6.1-4.3,6.8-8c1.1-6,3.2-11.7,6.1-17c2.3-4.3,4.3-8.7,6.5-13C-1171-741.5-1170.9-743.9-1171.7-746L-1171.7-746z"/>
	<path class="st1" d="M-996.7-1073.2c-5.4,0.2-10.6-1-15.9-1.8c-1.1-0.2-2.2-0.1-3.2,0.3c-7.7,3.6-15.2,3.1-22.3-1.6
		c-3-1.8-5.2-4.7-6.2-8.1c-0.5-1.8-1.2-2.3-2.9-1.6c-7.6,3.2-14.2,0.1-20.3-3.8c-6.1-3.9-6.5-10.6-6.4-17c0-5.2,1.8-10.2,5.3-14.2
		c0.5-0.6,0.9-1.4,1-2.3c1.8-11.3,9-17.2,19.5-19.8c3.3-0.7,6.4-2.1,9.1-4.1c1.9-1.5,4.2-2.5,6.6-2.8c9.1-1.5,17.7-0.6,25.6,4.5
		c1.7,1.1,3.8,1.5,5.8,1c6-0.9,12.1,0.2,17.3,3.1c0.7,0.3,1.3,0.7,1.8,1.2c2.7,4,7.2,5.8,10.6,9c6.1,5.7,9.3,12.8,7.9,21.4
		c-0.2,1.2,0,2.4,0.4,3.5c4.3,10.3-0.1,22.2-10.1,27.2C-980.3-1075.2-988.4-1073.2-996.7-1073.2z M-1024.2-1147.4
		c-7.2,0-10.4,0.5-13.5,3c-2.9,2.2-6.3,3.7-9.8,4.5c-8.8,2.2-15.3,7-17,16.5c-0.2,1.4-0.8,2.7-1.7,3.8c-4.5,5.5-5.1,11.9-4.3,18.6
		c0.4,3.8,1.8,7.4,5.4,9.4c2.5,1.3,5.1,2.4,7.8,3.2c6.5,2,14.1-1.2,15.9-6.9c0.8-2.9,3.1-5.2,5.9-6.1c5-1.9,9.1-4.8,11.1-10
		c0.4-1.1,1.4-1.8,2.5-1.9c7.1-0.6,13.5-2.9,18.2-8.6c0.6-0.8,1.4-1.4,2.4-0.5c0.8,0.7,0.4,1.6-0.1,2.3c-0.5,0.7-1,1.4-1.6,2
		c-4.5,4.9-10.4,6.8-16.7,7.9c-1.3,0.1-2.4,0.8-3,2c-1.8,3.8-4.9,6.7-8.8,8.3c-3.9,1.6-7.1,3.6-8.1,8c-0.2,0.6-0.6,1.2-1.1,1.6
		c-1.6,1.5-1.4,3.2-0.8,5.2c3.3,10.7,21.8,12.6,27.1,5.5c0.9-1.2,2-2.2,3.7-2c8.6,1,16.2-1.9,21.6-8.3c3.8-4.7,8.8-8.2,14.5-10.2
		c0.8-0.3,1.5-0.7,2.3-1.1c1.8-1,3.3-2.5,4.3-4.3c4.6-8,0.3-18.1-4.8-22.7c-3.6-3.3-8.3-5.3-11.3-9.4c-0.7-0.7-1.6-1.3-2.6-1.6
		c-4.4-1.8-8.9-2.8-13.7-2c-2.8,0.6-5.8,0-8.2-1.5C-1013.5-1146-1018.8-1147.9-1024.2-1147.4z"/>
	<path class="st0" d="M-879-800c1.6-0.1,3.2,0.7,4.1,2c0.8,0.9,1.4,2,1.9,3.1c2.4,7.5,7.8,12.9,12.4,18.8
		c15.7,20.2,27.6,42.2,33.1,67.4c1.6,7.4,2.6,14.9,3.6,22.4c1,7.5,3.8,14.7,8.2,20.9c3.5,4.9,6.5,10,9.6,15.2c1.2,2,1.9,3.9,0.4,6
		c-1.4,2.2-3.9,3.4-6.5,3.1c-1.1-0.1-2.2-0.5-3.2-1c-3.3-1.8-6.5-2.8-10.4-2c-3.3,0.7-5.4-1.3-6.6-5.8c-2-6.9-5.2-13.5-9.4-19.3
		c-5-7.2-10.6-14-15.3-21.5c-8.5-13.3-16.1-27.2-22.8-41.5c-3.2-6.8-3.8-14.2-5.3-21.4c-2.2-10.2-6.5-19.7-12.7-28.1
		c-2.6-3.6-2.2-6.8,1.4-9.4c2-1.5,4.5-2.5,7-2.6c1.8,0,3.4-1,4.4-2.5C-883.7-798.5-881.5-799.8-879-800z M-811.5-644.3
		c2.7,0,4-1.9,2.8-3.9c-2.7-4.6-5.1-9.3-8.3-13.6c-5.7-7.5-9.2-16.4-10.3-25.7c-0.4-3.1-0.8-6.1-1.3-9.2
		c-3.2-20.7-10.3-40.5-21.1-58.4c-8.2-13.8-20.5-24.8-27-39.8c-1.1-2.6-3.9-2.7-5.6-0.1c-1.7,2.8-4.8,4.6-8.2,4.5
		c-0.7,0.1-1.5,0.3-2.1,0.6c-2.8,1.2-3.6,2.8-2.4,5.5c0.9,2.1,2,4.2,3.2,6.2c5,8.4,8.5,17.5,10.3,27.1c1,5.6,1.7,11.3,4.1,16.6
		c6.4,14,13.8,27.6,22,40.6c9.2,14.8,22.1,27.2,26.6,44.8c0.5,1.7,2,2.2,3.6,1.7c3.4-0.9,6.5,0,9.4,1.5
		C-814.4-644.9-813-644.4-811.5-644.3z"/>
	<path class="st0" d="M-1021.4-433.8c0-15.6,0.5-31.2,1.2-46.8c0.7-16.6,2.9-33.2,6.6-49.4c0.4-2.5,1.3-4.9,2.7-7
		c1.3-1.8,3-3.2,5.4-3s3,2.3,3.7,4.1c4,10.2,6,20.8,7.4,31.6c2.1,16.6,3.7,33.3,3.3,50c-0.2,7.8-0.7,15.5-0.8,23.2
		c-0.1,6.9,0.3,13.8,0.4,20.7c0,1.3-0.1,2.6-0.4,3.9c-0.1,0.8-0.7,1.4-1.5,1.4c-0.8,0-1.4-0.5-1.7-1.3c-0.5-1.3-0.7-2.7-0.6-4.1
		c-0.3-11.8,0.3-23.5,0.6-35.3c0.8-23.9-0.9-47.9-5.1-71.5c-1.1-5.7-2.6-11.3-4.6-16.7c-0.3-0.8-0.4-2.1-1.6-2.1s-1.5,1-2,1.8
		c-1.1,2.2-1.8,4.5-2.1,6.9c-3.9,18.2-5.6,36.7-6.4,55.3c-0.5,11.6-0.5,23.2-0.8,34.8c-0.4,9.3-0.1,18.7,0.6,28c0,0.5,0,0.9,0,1.4
		c-0.1,1-0.4,2.2-1.6,2.3s-1.8-1-1.9-2c-0.4-3.2-0.8-6.3-0.9-9.5C-1021.5-422.5-1021.4-428.1-1021.4-433.8z"/>
	<path class="st0" d="M-877.7-763.9c0.2-2.2,0.5-4.3,2.7-5.2c2.4-1,4.1,0.6,5.6,2.2c16.8,19.2,31.1,39.7,34.6,66
		c1,7.4,2.4,14.7,3.7,22.1c0.3,1.7,0.4,3.5-1.4,4.4s-3-0.6-4-1.8c-6.6-7.1-11.3-15.5-16.4-23.7c-10.2-16.4-17.9-34.1-22.8-52.8
		C-876.7-756.4-877.3-760.2-877.7-763.9z M-835.2-678.9c0.2-0.4,0.4-0.6,0.4-0.7c-1.4-13.6-3.6-27-7.9-40
		c-5.8-17.5-17.5-31.4-29-45.3c-0.5-0.7-1.2-1.7-2.3-1c-1.1,0.7-0.7,1.8-0.6,2.8c0.8,8.1,3.2,15.8,5.8,23.3
		c5.9,16.7,14.4,32.2,23.7,47.2C-842.1-687.8-838.8-683.2-835.2-678.9L-835.2-678.9z"/>
	<text transform="matrix(1 0 0 1 -1577.3999 -1111.3195)" style="font-family:'HelveticaNeueLTStd-Lt'; font-size:19.49px;">Daños ce</text>
	<text transform="matrix(1 0 0 1 -1497.6101 -1111.3195)" style="font-family:'HelveticaNeueLTStd-Lt'; font-size:19.49px;">r</text>
	<text transform="matrix(1 0 0 1 -1491.8201 -1111.3195)" style="font-family:'HelveticaNeueLTStd-Lt'; font-size:19.49px;">ebrales y al sistema nervioso central</text>
	
		<text transform="matrix(1 0 0 1 -1333.27 -1086.3894)" class="st0" style="font-family:'HelveticaNeueLTStd-Lt'; font-size:19.49px;">-Coma</text>
	
		<text transform="matrix(1 0 0 1 -1333.27 -1063.0094)" class="st0" style="font-family:'HelveticaNeueLTStd-Lt'; font-size:19.49px;">-Convulsiones</text>
	
		<text transform="matrix(1 0 0 1 -1415.5701 -1039.6194)" class="st0" style="font-family:'HelveticaNeueLTStd-Lt'; font-size:19.49px;">-Discapacidad intelectual</text>
	
		<text transform="matrix(1 0 0 1 -1414.8601 -1016.2294)" class="st0" style="font-family:'HelveticaNeueLTStd-Lt'; font-size:19.49px;">-</text>
	
		<text transform="matrix(1 0 0 1 -1407.6501 -1016.2294)" class="st0" style="font-family:'HelveticaNeueLTStd-Lt'; font-size:19.49px; letter-spacing:-1;">T</text>
	
		<text transform="matrix(1 0 0 1 -1398.6201 -1016.2294)" class="st0" style="font-family:'HelveticaNeueLTStd-Lt'; font-size:19.49px;">rasto</text>
	
		<text transform="matrix(1 0 0 1 -1356.3901 -1016.2294)" class="st0" style="font-family:'HelveticaNeueLTStd-Lt'; font-size:19.49px;">r</text>
	
		<text transform="matrix(1 0 0 1 -1349.9 -1016.2294)" class="st0" style="font-family:'HelveticaNeueLTStd-Lt'; font-size:19.49px;">nos de comportamiento</text>
	
		<text transform="matrix(1 0 0 1 -1333.27 -992.8494)" class="st0" style="font-family:'HelveticaNeueLTStd-Lt'; font-size:19.49px;">-Muerte</text>
	<text transform="matrix(1 0 0 1 -1382.0701 -841.2692)" style="font-family:'HelveticaNeueLTStd-Lt'; font-size:20.34px;">Anemia</text>
	<text transform="matrix(1 0 0 1 -1407.6501 -930.9993)" style="font-family:'HelveticaNeueLTStd-Lt'; font-size:20.67px;">Hipertensión</text>
	<g>
		<text transform="matrix(1 0 0 1 -1477.5901 -746.9591)" style="font-family:'HelveticaNeueLTStd-Lt'; font-size:20.4px;">Disfunción</text>
		<text transform="matrix(1 0 0 1 -1380.5101 -746.9591)" style="font-family:'HelveticaNeueLTStd-Lt'; font-size:20.4px;">r</text>
		<text transform="matrix(1 0 0 1 -1374.4601 -746.9591)" style="font-family:'HelveticaNeueLTStd-Lt'; font-size:20.4px;">enal</text>
	</g>
	<g>
		
			<text transform="matrix(1 0 0 1 -1591.6199 -626.9491)" style="font-family:'HelveticaNeueLTStd-Lt'; font-size:19.05px; letter-spacing:-2;">T</text>
		<text transform="matrix(1 0 0 1 -1583.1399 -626.9491)" style="font-family:'HelveticaNeueLTStd-Lt'; font-size:19.05px;">oxicidad en los órganos</text>
		<text transform="matrix(1 0 0 1 -1383.0601 -626.9491)" style="font-family:'HelveticaNeueLTStd-Lt'; font-size:19.05px;">r</text>
		<text transform="matrix(1 0 0 1 -1377.4001 -626.9491)" style="font-family:'HelveticaNeueLTStd-Lt'; font-size:19.05px;">ep</text>
		<text transform="matrix(1 0 0 1 -1356.5801 -626.9491)" style="font-family:'HelveticaNeueLTStd-Lt'; font-size:19.05px;">r</text>
		<text transform="matrix(1 0 0 1 -1350.92 -626.9491)" style="font-family:'HelveticaNeueLTStd-Lt'; font-size:19.05px;">oducto</text>
		<text transform="matrix(1 0 0 1 -1293.04 -626.9491)" style="font-family:'HelveticaNeueLTStd-Lt'; font-size:19.05px;">r</text>
		<text transform="matrix(1 0 0 1 -1287.39 -626.9491)" style="font-family:'HelveticaNeueLTStd-Lt'; font-size:19.05px;">es</text>
	</g>
	<line class="st2" x1="-1256.8" y1="-627.3" x2="-1008.7" y2="-566.5"/>
	<line class="st2" x1="-1329.6" y1="-751.8" x2="-1078.8" y2="-688.2"/>
	<line class="st3" x1="-1304.4" y1="-843.9" x2="-1155.8" y2="-769.5"/>
	<line class="st2" x1="-1319.2" y1="-947.5" x2="-1036.9" y2="-901.8"/>
	<line class="st3" x1="-1194.7" y1="-1094" x2="-1065.3" y2="-1127.6"/>
	<text transform="matrix(1 0 0 1 -1279.97 -1222.2394)" class="st9" style="font-size:36px;">PLOMO</text>
</g>
<g id="Imagen">
	
		<image style="display:none;overflow:visible;" width="700" height="1080" xlink:href="../../humano.png"  transform="matrix(-1.263 0 0 1.263 1101.1648 -920.2433)">
	</image>
	
		<image style="overflow:visible;" width="1500" height="1250" xlink:href="../../UN HUMANO.png"  transform="matrix(0.6896 0 0 0.6896 130.9977 -915.3396)">
	</image>
	
		<image style="overflow:visible;" width="1500" height="1250" xlink:href="../../UN HUMANO.png"  transform="matrix(0.6896 0 0 0.6896 130.9977 -22.1197)">
	</image>
	
		<image style="overflow:visible;" width="1500" height="1250" xlink:href="../../UN HUMANO.png"  transform="matrix(0.6896 0 0 0.6896 624.1709 -533.5)">
	</image>
	
		<image style="overflow:visible;" width="1500" height="1250" xlink:href="../../UN HUMANO.png"  transform="matrix(0.6896 0 0 0.6896 -1168.4755 -21.2961)">
	</image>
</g>
<g id="Extras">
	<path class="st4" d="M6.9-892.5h786.4c14.9,0,26.9,15.2,26.9,34l0,0c0,18.8-12,34-26.9,34H6.9c-14.9,0-26.9-15.2-26.9-34l0,0
		C-20-877.3-8-892.5,6.9-892.5z"/>
	<path class="st4" d="M11.3-0.3h779.1c14.7,0,26.6,15.2,26.6,34l0,0c0,18.8-11.9,34-26.6,34H11.3c-14.7,0-26.6-15.2-26.6-34l0,0
		C-15.3,15-3.4-0.3,11.3-0.3z"/>
	<line class="st2" x1="331.6" y1="172.5" x2="643.2" y2="116"/>
	<line class="st2" x1="293.3" y1="358.6" x2="576.7" y2="408.4"/>
	<line class="st2" x1="329.2" y1="487.4" x2="688.6" y2="472.3"/>
	<line class="st2" x1="313.6" y1="578.6" x2="598.2" y2="507.1"/>
	<line class="st2" x1="336.2" y1="657.3" x2="459.6" y2="666.9"/>
	<path class="st4" d="M-826.8-0.4h807.6c15.3,0,27.6,15.2,27.6,34l0,0c0,18.8-12.4,34-27.6,34h-807.6c-15.3,0-27.6-15.2-27.6-34l0,0
		C-854.4,14.8-842-0.4-826.8-0.4z"/>
	<line class="st2" x1="-346.6" y1="170.5" x2="-641.8" y2="116.8"/>
	<line class="st2" x1="-396.1" y1="302.8" x2="-659.9" y2="390.9"/>
	<text transform="matrix(1 0 0 1 -646.9821 49.7521)" class="st9 st10">EXPOSICIÓN AL ARSÉNICO</text>
	<text transform="matrix(1 0 0 1 -378.0463 295.6744)" class="st6"><tspan x="0" y="0" class="st7 st8">Enfermedades </tspan><tspan x="0" y="25.2" class="st7 st8">cardiovasculares</tspan></text>
	<text transform="matrix(1 0 0 1 -327.0698 410.8159)" class="st7 st8">Cáncer pulmonar</text>
	<text transform="matrix(1 0 0 1 -353.6404 500.4357)" class="st7 st8">Fibrosis hepática</text>
	<text transform="matrix(1 0 0 1 -341.9477 732.4113)" class="st7 st8">Cáncer de vejiga</text>
	<circle class="st0" cx="-346.6" cy="170.5" r="7.1"/>
	<circle class="st5" cx="-641.8" cy="116.8" r="9.1"/>
	<circle class="st0" cx="-396.1" cy="302.8" r="7.1"/>
	<circle class="st5" cx="-659.9" cy="390.9" r="9.1"/>
	<line class="st2" x1="-346" y1="405.1" x2="-592.8" y2="417.1"/>
	<circle class="st0" cx="-346" cy="405.1" r="7.1"/>
	<circle class="st5" cx="-592.8" cy="417.1" r="9.1"/>
	<line class="st2" x1="-369.8" y1="493.3" x2="-610.9" y2="463.7"/>
	<circle class="st0" cx="-369.8" cy="493.3" r="7.1"/>
	<circle class="st5" cx="-610.9" cy="463.7" r="9.1"/>
	<line class="st2" x1="-320" y1="604.3" x2="-480.3" y2="657.7"/>
	<circle class="st0" cx="-320" cy="604.3" r="7.1"/>
	<circle class="st5" cx="-480.3" cy="657.7" r="9.1"/>
	<line class="st2" x1="-356.7" y1="725.2" x2="-658.9" y2="666.8"/>
	<circle class="st0" cx="-356.7" cy="725.2" r="7.1"/>
	<circle class="st5" cx="-658.9" cy="666.8" r="9.1"/>
	<path class="st4" d="M968.2-512.6h811.6c15.3,0,27.8,15.2,27.8,34l0,0c0,18.8-12.4,34-27.8,34H968.2c-15.3,0-27.8-15.2-27.8-34l0,0
		C940.5-497.4,952.9-512.6,968.2-512.6z"/>
	<line class="st2" x1="1409.4" y1="-206.4" x2="1201.7" y2="-112.7"/>
	<line class="st2" x1="1463" y1="-114.8" x2="1109.8" y2="-58.5"/>
	<text transform="matrix(1 0 0 1 1166.0308 -462.6281)" class="st9 st10">EXPOSICIÓN AL CADMIO</text>
	<text transform="matrix(1 0 0 1 1524.5657 -20.7302)" class="st7 st8">Irritación de estómago</text>
	<text transform="matrix(1 0 0 1 1524.5876 8.2547)" class="st7 st8">Vómitos</text>
	<text transform="matrix(1 0 0 1 1441.4353 206.6713)" class="st6"><tspan x="0" y="0" class="st7 st8">Fragilidad en los</tspan><tspan x="0" y="25.2" class="st7 st8">huesos</tspan></text>
	<text transform="matrix(1 0 0 1 1467.5771 75.8911)" class="st6"><tspan x="0" y="0" class="st7 st8">Acumulación de cadmio</tspan><tspan x="0" y="25.2" class="st7 st8">en los riñones</tspan></text>
	<text transform="matrix(1 0 0 1 1423.0288 -200.4012)" class="st7 st8">Cáncer de pulmón</text>
	<text transform="matrix(1 0 0 1 1490.2812 -115.5511)" class="st7 st8">Necrosis hepática</text>
	<circle class="st0" cx="1408.1" cy="-206.2" r="7.1"/>
	<circle class="st5" cx="1201.7" cy="-112.7" r="9.1"/>
	<circle class="st0" cx="1460.5" cy="-115.6" r="7.1"/>
	<circle class="st5" cx="1192.6" cy="-35.2" r="9.1"/>
	<line class="st2" x1="1503.9" y1="-12.6" x2="1192.6" y2="-35.2"/>
	<circle class="st0" cx="1501.4" cy="-13.3" r="7.1"/>
	<circle class="st5" cx="1109.8" cy="-58.5" r="9.1"/>
	<line class="st2" x1="1451" y1="80.7" x2="1169.9" y2="-3.6"/>
	<circle class="st0" cx="1448.5" cy="80" r="7.1"/>
	<circle class="st5" cx="1169.9" cy="-3.6" r="9.1"/>
	<line class="st2" x1="1429.8" y1="215" x2="1301.4" y2="103.7"/>
	<circle class="st0" cx="1427.3" cy="214.2" r="7.1"/>
	<circle class="st5" cx="1301.4" cy="103.7" r="9.1"/>
</g>
<g id="Texti">
	<text transform="matrix(1 0 0 1 199.1293 -844.4677)" class="st9 st10">EXPOSICIÓN AL PLOMO</text>
	<text transform="matrix(1 0 0 1 164.8037 -702.946)" class="st6"><tspan x="0" y="0" class="st7 st8">Problemas en la función</tspan><tspan x="0" y="25.2" class="st7 st8">motora</tspan></text>
	<text transform="matrix(1 0 0 1 164.8031 -735.0023)" class="st7 st8">Hiperactividad</text>
	<text transform="matrix(1 0 0 1 164.8036 -648.2284)" class="st7 st8">Convulsiones</text>
	<text transform="matrix(1 0 0 1 164.8036 -766.2123)" class="st7 st8">Pérdida de memoria</text>
	<text transform="matrix(1 0 0 1 78.2406 188.1432)" class="st6"><tspan x="0" y="0" class="st7 st8">Toxicidad en el sistema</tspan><tspan x="0" y="25.2" class="st7 st8">nervioso central</tspan></text>
	<text transform="matrix(1 0 0 1 78.24 160.0869)" class="st7 st8">Cefalea</text>
	<text transform="matrix(1 0 0 1 78.2405 244.8608)" class="st7 st8">Temblores</text>
	<text transform="matrix(1 0 0 1 78.2405 132.8769)" class="st7 st8">Transtornos neurológicos</text>
	<text transform="matrix(1 0 0 1 -327.0692 206.6715)" class="st6"><tspan x="0" y="0" class="st7 st8">Efectos negativos en</tspan><tspan x="0" y="25.2" class="st7 st8">el desarrollo cognitivo</tspan></text>
	<text transform="matrix(1 0 0 1 -327.0698 177.6152)" class="st7 st8">Alzhaimer</text>
	<text transform="matrix(1 0 0 1 -327.0693 149.4052)" class="st7 st8">Encefalopatías</text>
	<text transform="matrix(1 0 0 1 -300.9545 636.1188)" class="st7 st8">Hiperpigmentación</text>
	<text transform="matrix(1 0 0 1 -300.9551 609.0625)" class="st7 st8">Hiperqueratosis</text>
	<text transform="matrix(1 0 0 1 -300.9547 583.8525)" class="st7 st8">Lesiones cutáneas</text>
	<text transform="matrix(1 0 0 1 130.9976 -559.1854)" class="st7 st8">Hipertensión</text>
	<text transform="matrix(1 0 0 1 86.548 -430.7947)" class="st7 st8">Anemia</text>
	<text transform="matrix(1 0 0 1 130.998 -526.7201)" class="st7 st8">Cardiopatías</text>
	<text transform="matrix(1 0 0 1 150.6362 -322.0034)" class="st7 st8">Insuficiencia  renal</text>
	<text transform="matrix(1 0 0 1 116.6134 -200.4015)" class="st7 st8">Problemas repoductivos</text>
	<line class="st2" x1="411.3" y1="-729.7" x2="642.4" y2="-777.2"/>
	<ellipse class="st0" cx="410.9" cy="-729.7" rx="5.8" ry="5.4"/>
	<ellipse class="st5" cx="642.4" cy="-777.2" rx="9.8" ry="9.1"/>
	<circle class="st0" cx="170.2" cy="-437.5" r="5.4"/>
	<line class="st2" x1="170.5" y1="-437.6" x2="489.5" y2="-403.9"/>
	<circle class="st5" cx="489.5" cy="-403.9" r="9.1"/>
	<line class="st2" x1="358.1" y1="-203.1" x2="611.2" y2="-163.3"/>
	<circle class="st0" cx="358.1" cy="-203.1" r="5.4"/>
	<circle class="st5" cx="611.2" cy="-163.3" r="9.1"/>
	<line class="st2" x1="337.9" y1="-327.4" x2="597.1" y2="-385.8"/>
	<circle class="st0" cx="337.6" cy="-327.4" r="5.4"/>
	<circle class="st5" cx="597.1" cy="-385.8" r="9.1"/>
	<line class="st2" x1="262.6" y1="-546.2" x2="639.2" y2="-511.5"/>
	<circle class="st0" cx="266.4" cy="-545.9" r="5.4"/>
	<circle class="st5" cx="639.2" cy="-511.5" r="9.1"/>
	<text transform="matrix(1 0 0 1 168.0028 49.7523)" class="st9 st10">EXPOSICIÓN AL MERCURIO</text>
	<text transform="matrix(1 0 0 1 59.9988 368.2715)" class="st7 st8">Neumonitis intersticial</text>
	<text transform="matrix(1 0 0 1 240.043 493.2978)" class="st7 st8">Vómitos</text>
	<text transform="matrix(1 0 0 1 130.9982 583.8524)" class="st7 st8">Insuficiencia renal</text>
	<text transform="matrix(1 0 0 1 150.6365 663.6381)" class="st7 st8">Irritación en la piel</text>
	<text transform="matrix(1 0 0 1 59.9991 396.9283)" class="st7 st8">Edema pulmonar</text>
	<text transform="matrix(1 0 0 1 59.999 339.1701)" class="st7 st8">Fibrosis pulmonar</text>
	<circle class="st0" cx="332.9" cy="172.3" r="7.1"/>
	<circle class="st5" cx="643.2" cy="116" r="9.1"/>
	<circle class="st0" cx="293.3" cy="358.6" r="7.1"/>
	<circle class="st5" cx="576.7" cy="408.4" r="9.1"/>
	<circle class="st0" cx="331.8" cy="487.7" r="7.1"/>
	<circle class="st5" cx="688.6" cy="472.3" r="9.1"/>
	<circle class="st0" cx="316.2" cy="578.9" r="7.1"/>
	<circle class="st5" cx="598.2" cy="507.1" r="9.1"/>
	<circle class="st0" cx="338.7" cy="657.5" r="7.1"/>
	<circle class="st5" cx="459.6" cy="666.8" r="9.1"/>
</g>
</svg>
