<?xml version="1.0" encoding="utf-8"?>
<!-- Generator: Adobe Illustrator 25.2.3, SVG Export Plug-In . SVG Version: 6.00 Build 0)  -->
<svg version="1.1" id="Capa_1" xmlns="http://www.w3.org/2000/svg" xmlns:xlink="http://www.w3.org/1999/xlink" x="0px" y="0px"
	 viewBox="0 0 8192 1072.8" style="enable-background:new 0 0 8192 1072.8;" xml:space="preserve">
<style type="text/css">
	.st0{fill:#2C2F7B;}
	.st1{font-family:'HelveticaNeueLTStd-Bd';}
	.st2{font-size:45.6281px;}
	.st3{fill:none;stroke:#9FE7F5;stroke-width:45.6281;stroke-miterlimit:5.7035;}
	.st4{opacity:0.72;fill:#E5A415;enable-background:new    ;}
	.st5{fill:#2B7A99;}
	.st6{fill:none;stroke:#2B7A99;stroke-width:2.8518;stroke-miterlimit:5.7035;}
	.st7{fill:#110F0E;}
	.st8{font-family:'HelveticaNeueLTStd-Roman';}
	.st9{font-size:27.3769px;}
	.st10{font-family:'HelveticaNeueLTStd-Md';}
	.st11{font-size:63.6056px;}
	.st12{font-size:69.2691px;}
	.st13{font-size:37.0158px;}
	.st14{font-size:59.2652px;}
	.st15{letter-spacing:-1;}
</style>
<g id="Texto">
	<text transform="matrix(1 0 0 1 1538.8594 1008.1411)" class="st0 st1 st2">Demanda contra PROMEL</text>
	<text transform="matrix(1 0 0 1 2440.8867 134.1176)" class="st0 st1 st2">Resolución demanda P</text>
	<text transform="matrix(1 0 0 1 2942.6523 134.1176)" class="st0 st1 st2">r</text>
	<text transform="matrix(1 0 0 1 2959.5811 134.1176)" class="st0 st1 st2">omel</text>
	<text transform="matrix(1 0 0 1 3345.6914 116.1235)" class="st0 st1 st2">Contacto Canal 13</text>
	<text transform="matrix(1 0 0 1 3299.3047 992.5248)" class="st0 st1 st2">P</text>
	<text transform="matrix(1 0 0 1 3329.7383 992.5248)" class="st0 st1 st2">r</text>
	<text transform="matrix(1 0 0 1 3346.667 992.5248)" class="st0 st1 st2">ograma de intervención</text>
	<text transform="matrix(1 0 0 1 4394.0938 128.9848)" class="st0 st1 st2">Ley Polimetales</text>
	<text transform="matrix(1 0 0 1 5067.0449 1008.1411)" class="st0 st1 st2">Demanda contra BOLIDEN</text>
	<text transform="matrix(1 0 0 1 5880.1211 96.8627)" class="st0 st1 st2">Resolución demanda Boliden</text>
	<text transform="matrix(1 0 0 1 6640.5586 953.9008)" class="st0 st1 st2">La voz de los que sobran</text>
	<text transform="matrix(1 0 0 1 7558.4414 196.6743)" class="st0 st1 st2">Periódico El Pais</text>
	<line class="st3" x1="963.5" y1="536.4" x2="8192" y2="536.4"/>
	<path class="st4" d="M1593.7,617.3H2056c28.4,0,51.3,23,51.3,51.3v227.6c0,28.4-23,51.3-51.3,51.3h-462.3
		c-28.4,0-51.3-23-51.3-51.3V668.6C1542.4,640.2,1565.4,617.3,1593.7,617.3z"/>
	<path class="st4" d="M5132.1,579.8h450.3c29.6,0,53.5,24,53.5,53.5v257.1c0,29.6-24,53.5-53.5,53.5h-450.3
		c-29.6,0-53.5-24-53.5-53.5V633.4C5078.6,603.8,5102.5,579.8,5132.1,579.8z"/>
	<path class="st4" d="M2516,165.8h475.7c25.7,0,46.5,20.8,46.5,46.5v175.9c0,25.7-20.8,46.5-46.5,46.5H2516
		c-25.7,0-46.5-20.8-46.5-46.5V212.3C2469.5,186.6,2490.3,165.8,2516,165.8z"/>
	<path class="st4" d="M3318.1,139.9h457.3c28.1,0,50.9,22.8,50.9,50.9v226.6c0,28.1-22.8,50.9-50.9,50.9h-457.3
		c-28.1,0-50.9-22.8-50.9-50.9V190.8C3267.2,162.7,3290,139.9,3318.1,139.9z"/>
	<path class="st4" d="M4333.9,152.9H4798c25.5,0,46.2,20.7,46.2,46.2v178.9c0,25.5-20.7,46.2-46.2,46.2h-464.1
		c-25.5,0-46.2-20.7-46.2-46.2V199.1C4287.7,173.6,4308.4,152.9,4333.9,152.9z"/>
	<path class="st4" d="M3382.7,608.3h396c26.2,0,47.5,21.3,47.5,47.5v230.3c0,26.2-21.3,47.5-47.5,47.5h-396
		c-26.2,0-47.5-21.3-47.5-47.5V655.8C3335.2,629.5,3356.4,608.3,3382.7,608.3z"/>
	<path class="st4" d="M5996,116.7h404.2c27.5,0,49.8,22.3,49.8,49.8v248.4c0,27.5-22.3,49.8-49.8,49.8H5996
		c-27.5,0-49.8-22.3-49.8-49.8V166.4C5946.3,138.9,5968.5,116.7,5996,116.7z"/>
	<path class="st4" d="M6709.3,633.3h405.1c23.2,0,42,18.8,42,42v171c0,23.2-18.8,42-42,42h-405.1c-23.2,0-42-18.8-42-42v-171
		C6667.3,652.1,6686.1,633.3,6709.3,633.3z"/>
	<path class="st4" d="M7535,218.7h414.3c20.6,0,37.4,16.7,37.4,37.4v127.5c0,20.6-16.7,37.4-37.4,37.4H7535
		c-20.6,0-37.4-16.7-37.4-37.4V256.1C7497.6,235.5,7514.3,218.7,7535,218.7z"/>
	<path class="st4" d="M-197.6,0h704.9c252,0,456.2,204.3,456.2,456.2v160.3c0,252-204.3,456.2-456.2,456.2h-704.9
		c-252,0-456.2-204.3-456.2-456.2V456.2C-653.9,204.3-449.6,0-197.6,0z"/>
	<circle class="st5" cx="1373.5" cy="536.4" r="38.4"/>
	<line class="st6" x1="1373.5" y1="536.4" x2="1373.5" y2="821.7"/>
	<text transform="matrix(1 0 0 1 3376.9414 664.7953)" class="st7 st8 st9">Se da a conocer públicamente el </text>
	<text transform="matrix(1 0 0 1 3376.9414 697.6479)" class="st7 st8 st9">&quot;P</text>
	<text transform="matrix(1 0 0 1 3406.3428 697.6479)" class="st7 st8 st9">r</text>
	<text transform="matrix(1 0 0 1 3414.9668 697.6479)" class="st7 st8 st9">ograma maest</text>
	<text transform="matrix(1 0 0 1 3590.9424 697.6479)" class="st7 st8 st9">r</text>
	<text transform="matrix(1 0 0 1 3599.5664 697.6479)" class="st7 st8 st9">o de </text>
	<text transform="matrix(1 0 0 1 3376.9414 730.4995)" class="st7 st8 st9">intervención en zonas con </text>
	<text transform="matrix(1 0 0 1 3376.9414 763.352)" class="st7 st8 st9">p</text>
	<text transform="matrix(1 0 0 1 3393.1738 763.352)" class="st7 st8 st9">r</text>
	<text transform="matrix(1 0 0 1 3401.7969 763.352)" class="st7 st8 st9">esencia de polimetales en </text>
	<text transform="matrix(1 0 0 1 3376.9414 796.2045)" class="st7 st8 st9">Arica&quot;, el cual consta de que se </text>
	<text transform="matrix(1 0 0 1 3376.9414 829.0561)" class="st7 st8 st9">r</text>
	<text transform="matrix(1 0 0 1 3385.5645 829.0561)" class="st7 st8 st9">elocalizarán las viviendas </text>
	<text transform="matrix(1 0 0 1 3376.9414 861.9086)" class="st7 st8 st9">ubicadas en la zona delimitada </text>
	<text transform="matrix(1 0 0 1 3376.9414 894.7612)" class="st7 st8 st9">por Salud y Medio Ambiente.</text>
</g>
<g id="Capa_8">
	<text transform="matrix(1 0 0 1 1302.75 899.2153)" class="st10 st11">1999</text>
	<text transform="matrix(1 0 0 1 138.1562 365.601)" class="st0 st1 st12">Después de años </text>
	<text transform="matrix(1 0 0 1 116.4033 448.7236)" class="st0 st1 st12">de ser afectados...</text>
	<text transform="matrix(0.98 0 0 1 172.834 545.5121)" class="st0 st10 st13">Un vistazo a la c</text>
	<text transform="matrix(0.98 0 0 1 447.7227 545.5121)" class="st0 st10 st13">r</text>
	<text transform="matrix(0.98 0 0 1 459.835 545.5121)" class="st0 st10 st13">onología de los</text>
	<text transform="matrix(0.98 0 0 1 180.1948 589.9311)" class="st0 st10 st13">p</text>
	<text transform="matrix(0.98 0 0 1 202.3574 589.9311)" class="st0 st10 st13">r</text>
	<text transform="matrix(0.98 0 0 1 214.4751 589.9311)" class="st0 st10 st13">ocesos judiciales que vivie</text>
	<text transform="matrix(0.98 0 0 1 661.4854 589.9311)" class="st0 st10 st13">r</text>
	<text transform="matrix(0.98 0 0 1 673.5977 589.9311)" class="st0 st10 st13">on</text>
	<text transform="matrix(0.98 0 0 1 517.6182 634.35)" class="st0 st10 st13">los vecinos.</text>
	<text transform="matrix(1 0 0 1 1588.4111 676.4077)" class="st7 st8 st9">Los habitantes de las poblaciones Los </text>
	<text transform="matrix(1 0 0 1 1588.4111 709.2602)" class="st7 st8 st9">Industriales y Cer</text>
	<text transform="matrix(1 0 0 1 1801.3457 709.2602)" class="st7 st8 st9">r</text>
	<text transform="matrix(1 0 0 1 1809.9697 709.2602)" class="st7 st8 st9">o Chuño </text>
	<text transform="matrix(1 0 0 1 1588.4111 742.1127)" class="st7 st8 st9">p</text>
	<text transform="matrix(1 0 0 1 1604.6426 742.1127)" class="st7 st8 st9">r</text>
	<text transform="matrix(1 0 0 1 1613.2676 742.1127)" class="st7 st8 st9">esenta</text>
	<text transform="matrix(1 0 0 1 1694.9062 742.1127)" class="st7 st8 st9">r</text>
	<text transform="matrix(1 0 0 1 1703.5312 742.1127)" class="st7 st8 st9">on una demanda contra la </text>
	<text transform="matrix(1 0 0 1 1588.4111 774.9643)" class="st7 st8 st9">emp</text>
	<text transform="matrix(1 0 0 1 1642.6973 774.9643)" class="st7 st8 st9">r</text>
	<text transform="matrix(1 0 0 1 1651.3203 774.9643)" class="st7 st8 st9">esa PROMEL y el Servicio de </text>
	<text transform="matrix(1 0 0 1 1588.4111 807.8168)" class="st7 st8 st9">Salud de Arica, solicitando una </text>
	<text transform="matrix(1 0 0 1 1588.4111 840.6694)" class="st7 st8 st9">indemnización de $25.000.000 para </text>
	<text transform="matrix(1 0 0 1 1588.4111 873.5209)" class="st7 st8 st9">cada uno de los 2.000 adhe</text>
	<text transform="matrix(1 0 0 1 1928.7285 873.5209)" class="st7 st8 st9">r</text>
	<text transform="matrix(1 0 0 1 1937.3516 873.5209)" class="st7 st8 st9">entes a la </text>
	<text transform="matrix(1 0 0 1 1588.4111 906.3735)" class="st7 st8 st9">causa.</text>
	
		<ellipse transform="matrix(0.1602 -0.9871 0.9871 0.1602 1429.6381 2753.1001)" class="st5" cx="2332.8" cy="536.4" rx="38.4" ry="38.4"/>
	<line class="st6" x1="2332.8" y1="536.4" x2="2332.8" y2="289.6"/>
	<text transform="matrix(1 0 0 1 2262.0352 254.81)" class="st10 st11">2007</text>
	<text transform="matrix(1 0 0 1 2514.9629 224.8495)" class="st7 st8 st9">Fallo de la Corte Sup</text>
	<text transform="matrix(1 0 0 1 2772.5176 224.8495)" class="st7 st8 st9">r</text>
	<text transform="matrix(1 0 0 1 2781.1406 224.8495)" class="st7 st8 st9">ema a través del </text>
	<text transform="matrix(1 0 0 1 2514.9629 257.7016)" class="st7 st8 st9">cual se </text>
	<text transform="matrix(1 0 0 1 2609.2773 257.7016)" class="st7 st8 st9">r</text>
	<text transform="matrix(1 0 0 1 2617.9004 257.7016)" class="st7 st8 st9">econoce el daño ocasionado </text>
	<text transform="matrix(1 0 0 1 2514.9629 290.5541)" class="st7 st8 st9">por la contaminación y o</text>
	<text transform="matrix(1 0 0 1 2816.6797 290.5541)" class="st7 st8 st9">r</text>
	<text transform="matrix(1 0 0 1 2825.3027 290.5541)" class="st7 st8 st9">dena al </text>
	<text transform="matrix(1 0 0 1 2514.9629 323.4062)" class="st7 st8 st9">estado de Chile a pagar una </text>
	<text transform="matrix(1 0 0 1 2514.9629 356.2582)" class="st7 st8 st9">indemnización de $8.000.000 a 356 </text>
	<text transform="matrix(1 0 0 1 2514.9629 389.1108)" class="st7 st8 st9">vecinos afectados.</text>
	<circle class="st5" cx="3190" cy="534" r="38.4"/>
	<line class="st6" x1="3190" y1="534" x2="3190" y2="780.7"/>
	<text transform="matrix(1 0 0 1 3119.3135 860.3295)" class="st10 st11">2009</text>
	<circle class="st5" cx="4144.9" cy="536.4" r="38.4"/>
	<line class="st6" x1="4144.9" y1="536.4" x2="4144.9" y2="289.6"/>
	<text transform="matrix(1 0 0 1 4074.207 254.81)" class="st10 st11">2012</text>
	<circle class="st5" cx="4968.9" cy="534.7" r="38.4"/>
	<line class="st6" x1="4968.9" y1="534.7" x2="4968.9" y2="781.5"/>
	<text transform="matrix(1 0 0 1 4898.1367 860.3295)" class="st10 st11">2013</text>
	<circle class="st5" cx="5834.7" cy="537.4" r="38.4"/>
	<line class="st6" x1="5834.7" y1="537.4" x2="5834.7" y2="290.6"/>
	<text transform="matrix(1 0 0 1 5764.0195 254.81)" class="st10 st14">2018</text>
	<circle class="st5" cx="6562.1" cy="537.4" r="38.4"/>
	<line class="st6" x1="6562.1" y1="537.4" x2="6562.1" y2="784.1"/>
	<text transform="matrix(1 0 0 1 6491.3672 860.3295)" class="st10 st14">2021</text>
	<circle class="st5" cx="7400.3" cy="530.6" r="38.4"/>
	<line class="st6" x1="7400.3" y1="530.6" x2="7400.3" y2="283.8"/>
	<text transform="matrix(1 0 0 1 7329.5605 254.81)" class="st10 st14">2023</text>
	<text transform="matrix(1 0 0 1 3303.3711 199.2465)" class="st7 st8 st9">El conflico </text>
	<text transform="matrix(1 0 0 1 3437.7061 199.2465)" class="st7 st8 st9">r</text>
	<text transform="matrix(1 0 0 1 3446.3301 199.2465)" class="st7 st8 st9">evive tras la emisión del </text>
	<text transform="matrix(1 0 0 1 3303.3711 232.0986)" class="st7 st8 st9">p</text>
	<text transform="matrix(1 0 0 1 3319.6035 232.0986)" class="st7 st8 st9">r</text>
	<text transform="matrix(1 0 0 1 3328.2266 232.0986)" class="st7 st8 st9">ograma Contacto de Canal 13, que </text>
	<text transform="matrix(1 0 0 1 3303.3711 264.9506)" class="st7 st8 st9">puso en evidencia los p</text>
	<text transform="matrix(1 0 0 1 3592.4141 264.9506)" class="st7 st8 st9">r</text>
	<text transform="matrix(1 0 0 1 3601.0371 264.9506)" class="st7 st8 st9">oblemas </text>
	<text transform="matrix(1 0 0 1 3303.3711 297.8032)" class="st7 st8 st9">asociados a la contaminación por </text>
	<text transform="matrix(1 0 0 1 3303.3711 330.6552)" class="st7 st8 st9">plomo y arsénico que viven, desde los </text>
	<text transform="matrix(1 0 0 1 3303.3711 363.5073)" class="st7 st8 st9">años ’90, los habitantes de las </text>
	<text transform="matrix(1 0 0 1 3303.3711 396.3598)" class="st7 st8 st9">poblaciones Los Industriales y Cer</text>
	<text transform="matrix(1 0 0 1 3725.2148 396.3598)" class="st7 st8 st9">r</text>
	<text transform="matrix(1 0 0 1 3733.8379 396.3598)" class="st7 st8 st9">o </text>
	<text transform="matrix(1 0 0 1 3303.3711 429.2123)" class="st7 st8 st9">Chuño.</text>
	<text transform="matrix(1 0 0 1 4326.2285 214.8569)" class="st7 st8 st9">El Ministerio Sec</text>
	<text transform="matrix(1 0 0 1 4530.5391 214.8569)" class="st7 st8 st9">r</text>
	<text transform="matrix(1 0 0 1 4539.1631 214.8569)" class="st7 st8 st9">etaría General de la </text>
	<text transform="matrix(1 0 0 1 4326.2285 247.7094)" class="st7 st8 st9">P</text>
	<text transform="matrix(1 0 0 1 4343.9658 247.7094)" class="st7 st8 st9">r</text>
	<text transform="matrix(1 0 0 1 4352.5898 247.7094)" class="st7 st8 st9">esidencia publicó la Ley N°20.590, la </text>
	<text transform="matrix(1 0 0 1 4326.2285 280.561)" class="st7 st8 st9">llamada &quot;Ley Polimetales&quot; que </text>
	<text transform="matrix(1 0 0 1 4326.2285 313.4135)" class="st7 st8 st9">establece un p</text>
	<text transform="matrix(1 0 0 1 4506.2539 313.4135)" class="st7 st8 st9">r</text>
	<text transform="matrix(1 0 0 1 4514.877 313.4135)" class="st7 st8 st9">ograma de </text>
	<text transform="matrix(1 0 0 1 4326.2285 346.2661)" class="st7 st8 st9">intervención en zonas con p</text>
	<text transform="matrix(1 0 0 1 4669.9961 346.2661)" class="st7 st8 st9">r</text>
	<text transform="matrix(1 0 0 1 4678.6191 346.2661)" class="st7 st8 st9">esencia </text>
	<text transform="matrix(1 0 0 1 4326.2285 379.1181)" class="st7 st8 st9">de polimetales en la comuna de Arica.</text>
	<text transform="matrix(1 0 0 1 5113.1582 635.4741)" class="st7 st8 st9">Un grupo de abogados suecos en </text>
	<text transform="matrix(1 0 0 1 5113.1582 668.3256)" class="st7 st8 st9">colaboración con un bufete chileno, </text>
	<text transform="matrix(1 0 0 1 5113.1582 701.1782)" class="st7 st8 st9">p</text>
	<text transform="matrix(1 0 0 1 5129.3906 701.1782)" class="st7 st8 st9">r</text>
	<text transform="matrix(1 0 0 1 5138.0137 701.1782)" class="st7 st8 st9">esentó una demanda ante el tribunal </text>
	<text transform="matrix(1 0 0 1 5113.1582 734.0307)" class="st7 st8 st9">de Suecia contra la compañía Boliden </text>
	<text transform="matrix(1 0 0 1 5113.1582 766.8823)" class="st7 st8 st9">por los daños a la salud causados por </text>
	<text transform="matrix(1 0 0 1 5113.1582 799.7348)" class="st7 st8 st9">los </text>
	<text transform="matrix(1 0 0 1 5156.248 799.7348)" class="st7 st8 st9">r</text>
	<text transform="matrix(1 0 0 1 5164.8711 799.7348)" class="st7 st8 st9">esiduos tóxicos enviados a Arica. </text>
	<text transform="matrix(1 0 0 1 5113.1582 832.5873)" class="st7 st8 st9">Solicitando una indemnización </text>
	<text transform="matrix(1 0 0 1 5113.1582 865.4389)" class="st7 st8 st9">conjunta de 90 millones de co</text>
	<text transform="matrix(1 0 0 1 5480.3281 865.4389)" class="st7 st8 st9">r</text>
	<text transform="matrix(1 0 0 1 5488.9512 865.4389)" class="st7 st8 st9">onas </text>
	<text transform="matrix(1 0 0 1 5113.1582 898.2914)" class="st7 st8 st9">suecas.</text>
	<text transform="matrix(1 0 0 1 5987.9238 183.5961)" class="st7 st8 st9">El tribunal sueco dictó sentencia a </text>
	<text transform="matrix(1 0 0 1 5987.9238 216.4482)" class="st7 st8 st9">favor de Boliden, </text>
	<text transform="matrix(1 0 0 1 5987.9238 249.3002)" class="st7 st8 st9">desestimando la solicitud de </text>
	<text transform="matrix(1 0 0 1 5987.9238 282.1528)" class="st7 st8 st9">indemnización de los </text>
	<text transform="matrix(1 0 0 1 5987.9238 315.0048)" class="st7 st8 st9">demandantes. La demanda de las </text>
	<text transform="matrix(1 0 0 1 5987.9238 347.8569)" class="st7 st8 st9">víctimas llega de manera ta</text>
	<text transform="matrix(1 0 0 1 6322.5996 347.8569)" class="st7 st8 st9">r</text>
	<text transform="matrix(1 0 0 1 6331.2227 347.8569)" class="st7 st8 st9">día, </text>
	<text transform="matrix(1 0 0 1 5987.9238 380.7094)" class="st7 st8 st9">considerando que los hechos </text>
	<text transform="matrix(1 0 0 1 5987.9238 413.5615)" class="st7 st8 st9">ocurrie</text>
	<text transform="matrix(1 0 0 1 6072.5684 413.5615)" class="st7 st8 st9">r</text>
	<text transform="matrix(1 0 0 1 6081.1934 413.5615)" class="st7 st8 st9">on en la década del `80.</text>
	<text transform="matrix(1 0 0 1 6705.1562 690.7065)" class="st7 st8 st9"> Publicación del noticiario “La </text>
	<text transform="matrix(1 0 0 1 6705.1562 723.559)" class="st7 st8 st9 st15">V</text>
	<text transform="matrix(1 0 0 1 6720.3789 723.559)" class="st7 st8 st9">oz de los que sobran”, titulado </text>
	<text transform="matrix(1 0 0 1 6705.1562 756.4116)" class="st7 st8 st9">“P</text>
	<text transform="matrix(1 0 0 1 6734.5586 756.4116)" class="st7 st8 st9">r</text>
	<text transform="matrix(1 0 0 1 6743.1816 756.4116)" class="st7 st8 st9">omel: ¿Quiénes son los </text>
	<text transform="matrix(1 0 0 1 6705.1562 789.2631)" class="st7 st8 st9">emp</text>
	<text transform="matrix(1 0 0 1 6759.4434 789.2631)" class="st7 st8 st9">r</text>
	<text transform="matrix(1 0 0 1 6768.0664 789.2631)" class="st7 st8 st9">esarios locales que traje</text>
	<text transform="matrix(1 0 0 1 7063.623 789.2631)" class="st7 st8 st9">r</text>
	<text transform="matrix(1 0 0 1 7072.2461 789.2631)" class="st7 st8 st9">on </text>
	<text transform="matrix(1 0 0 1 6705.1562 822.1157)" class="st7 st8 st9">a Arica los mortales desechos </text>
	<text transform="matrix(1 0 0 1 6705.1562 854.9682)" class="st7 st8 st9">tóxicos suecos?”</text>
	<text transform="matrix(1 0 0 1 7535.7871 273.5346)" class="st7 st8 st9">Publicación en el periódico El </text>
	<text transform="matrix(1 0 0 1 7535.7871 306.3871)" class="st7 st8 st9">País sob</text>
	<text transform="matrix(1 0 0 1 7641.2402 306.3871)" class="st7 st8 st9">r</text>
	<text transform="matrix(1 0 0 1 7649.8633 306.3871)" class="st7 st8 st9">e las toneladas de </text>
	<text transform="matrix(1 0 0 1 7535.7871 339.2387)" class="st7 st8 st9">desechos tóxicos abandonados </text>
	<text transform="matrix(1 0 0 1 7535.7871 372.0912)" class="st7 st8 st9">en Chile.</text>
</g>
</svg>
