<svg id="Capa_1" data-name="Capa 1" xmlns="http://www.w3.org/2000/svg" viewBox="0 0 949.45 656.7"><defs><style>.cls-1{fill:#fff;}.cls-2{fill:#2b7a99;}.cls-3{fill:none;stroke:#000;}.cls-4,.cls-6,.cls-8,.cls-9{isolation:isolate;}.cls-4,.cls-6{font-size:16px;}.cls-4,.cls-8{font-family:HelveticaNeueLTStd-Roman, Helvetica Neue LT Std;}.cls-5{letter-spacing:-0.02em;}.cls-6,.cls-9{fill:#7b7b7b;font-family:Arial-BoldMT, Arial;font-weight:700;}.cls-7{letter-spacing:-0.02em;}.cls-8{font-size:14px;}.cls-9{font-size:19.86px;}</style></defs><rect id="backgorund" class="cls-1" x="2.11" width="949.45" height="656.7"/><rect id="undefined_-_Púlmon" data-name="undefined - Púlmon" class="cls-2" x="462.36" y="346.55" width="157.98" height="252"/><rect id="undefined_-_Estómago" data-name="undefined - Estómago" class="cls-2" x="103.66" y="434.35" width="157.98" height="164.2"/><rect id="undefined_-_Útero" data-name="undefined - Útero" class="cls-2" x="640.76" y="516.45" width="157.98" height="82.1"/><rect id="undefined_-_Ovarios" data-name="undefined - Ovarios" class="cls-2" x="283.97" y="569.67" width="157.98" height="28.88"/><path class="cls-3" d="M85.65,599.05h734"/><line class="cls-3" x1="184.56" y1="598.55" x2="184.56" y2="604.55"/><text class="cls-4" transform="translate(157.87 622.98)">Estómago</text><line class="cls-3" x1="362.96" y1="598.55" x2="362.96" y2="604.55"/><text class="cls-4" transform="translate(341.83 622.98)">Ovarios</text><line class="cls-3" x1="541.35" y1="598.55" x2="541.35" y2="604.55"/><text class="cls-4" transform="translate(520.31 622.98)">Púlmon</text><line class="cls-3" x1="719.75" y1="598.55" x2="719.75" y2="604.55"/><text class="cls-4" transform="translate(703.43 622.98)">Úte<tspan class="cls-5" x="25.18" y="0">r</tspan><tspan x="30.22" y="0">o</tspan></text><text class="cls-6" transform="translate(798.74 622.98)"><tspan class="cls-7">T</tspan><tspan x="9.48" y="0">ipo de cáncer</tspan></text><text class="cls-6" transform="translate(31.93 24.69)">Porcentaje de los afectados</text><path class="cls-3" d="M79.15,599.05h6.5v-549h-6.5"/><line class="cls-3" x1="85.15" y1="599.05" x2="79.15" y2="599.05"/><text class="cls-8" transform="translate(57.25 603.25)"><tspan xml:space="preserve"> 0</tspan></text><line class="cls-3" x1="85.15" y1="544.15" x2="79.15" y2="544.15"/><text class="cls-8" transform="translate(57.25 548.35)">10</text><line class="cls-3" x1="85.15" y1="489.25" x2="79.15" y2="489.25"/><text class="cls-8" transform="translate(57.25 493.45)">20</text><line class="cls-3" x1="85.15" y1="434.35" x2="79.15" y2="434.35"/><text class="cls-8" transform="translate(57.25 438.55)">30</text><line class="cls-3" x1="85.15" y1="379.45" x2="79.15" y2="379.45"/><text class="cls-8" transform="translate(57.25 383.65)">40</text><line class="cls-3" x1="85.15" y1="324.55" x2="79.15" y2="324.55"/><text class="cls-8" transform="translate(57.25 328.75)">50</text><line class="cls-3" x1="85.15" y1="269.65" x2="79.15" y2="269.65"/><text class="cls-8" transform="translate(57.25 273.85)">60</text><line class="cls-3" x1="85.15" y1="214.75" x2="79.15" y2="214.75"/><text class="cls-8" transform="translate(57.25 218.95)">70</text><line class="cls-3" x1="85.15" y1="159.85" x2="79.15" y2="159.85"/><text class="cls-8" transform="translate(57.25 164.05)">80</text><line class="cls-3" x1="85.15" y1="104.95" x2="79.15" y2="104.95"/><text class="cls-8" transform="translate(57.25 109.15)">90</text><line class="cls-3" x1="85.15" y1="50.05" x2="79.15" y2="50.05"/><text class="cls-8" transform="translate(53.25 54.25)">100</text><text class="cls-9" transform="translate(166.64 413.84) scale(0.81 1)">30%</text><text class="cls-9" transform="translate(351.32 557.5) scale(0.81 1)">6%</text><text class="cls-9" transform="translate(525.39 328.75) scale(0.81 1)">46%</text><text class="cls-9" transform="translate(703.43 499.65) scale(0.81 1)">16%</text></svg>